<?xml version="1.0" encoding="utf-8"?>
<!-- Generator: Adobe Illustrator 16.0.3, SVG Export Plug-In . SVG Version: 6.00 Build 0)  -->
<!DOCTYPE svg PUBLIC "-//W3C//DTD SVG 1.1//EN" "http://www.w3.org/Graphics/SVG/1.1/DTD/svg11.dtd">
<svg version="1.1" id="Layer_1" xmlns="http://www.w3.org/2000/svg" xmlns:xlink="http://www.w3.org/1999/xlink" x="0px" y="0px"
	 width="379px" height="118.833px" viewBox="0 0 379 118.833" enable-background="new 0 0 379 118.833" xml:space="preserve">
<g>
	<g>
		<circle fill="none" stroke="#C63D28" stroke-width="0.8905" stroke-miterlimit="10" cx="12.479" cy="61.957" r="9"/>
		<path fill="#676767" d="M14.266,60.191c-1.299,0-2.352,1.05-2.352,2.35c0,1.299,1.053,2.351,2.352,2.351
			c1.297,0,2.35-1.052,2.35-2.351S15.563,60.191,14.266,60.191z M14.266,63.921c-0.762,0-1.379-0.617-1.379-1.38
			c0-0.761,0.617-1.379,1.379-1.379s1.379,0.618,1.379,1.379C15.645,63.304,15.027,63.921,14.266,63.921z M10.623,58.211
			l-0.659-0.756H8.03l-0.658,0.756h-1.2v8.244h12.613v-8.244H10.623z M10.133,59.858H8.34c-0.213,0-0.385-0.172-0.385-0.383
			c0-0.213,0.172-0.385,0.385-0.385h1.793c0.213,0,0.385,0.172,0.385,0.385C10.52,59.687,10.348,59.858,10.133,59.858z
			 M14.266,65.614c-1.694,0-3.073-1.38-3.073-3.073c0-1.693,1.378-3.071,3.073-3.071s3.07,1.377,3.07,3.071
			C17.336,64.234,15.959,65.614,14.266,65.614z M18.127,59.587c0,0.112-0.09,0.204-0.205,0.204h-0.473
			c-0.111,0-0.203-0.091-0.203-0.204v-0.473c0-0.115,0.092-0.205,0.203-0.205h0.473c0.115,0,0.205,0.09,0.205,0.205V59.587z"/>
	</g>
	<g>
		<circle fill="none" stroke="#C73C28" stroke-width="0.8905" stroke-miterlimit="10" cx="233.974" cy="61.957" r="9"/>
		<path fill="#676767" d="M235.019,65.673L235.019,65.673c-0.006,0.881-0.801,1.742-1.941,2.029
			c-1.299,0.324-2.553-0.221-2.801-1.217c-0.25-0.994,0.6-2.066,1.896-2.391c0.585-0.146,1.16-0.113,1.639,0.053l-0.001-8.656
			l0.931,0.001c0,0-0.061,0.69,0.779,1.529c0.934,0.934,2.91,1.443,2.756,3.765c-0.082,1.197-1.082,3.059-1.082,3.059l-0.338-0.338
			c0,0,0.244-0.547,0.471-2.167c0.224-1.617-2.309-1.936-2.309-1.936V65.673z"/>
	</g>
	<g>
		<path fill="none" stroke="#C63D28" stroke-width="0.8905" stroke-miterlimit="10" d="M65.777,61.955c0,4.973-4.029,9.002-9,9.002
			s-9-4.029-9-9.002c0-4.969,4.029-8.998,9-8.998S65.777,56.985,65.777,61.955z"/>
		<g>
			<g>
				<path fill="#676767" d="M54.585,60.069c0,0.287-0.234,0.521-0.523,0.521h-2.05c-0.289,0-0.523-0.234-0.523-0.521l0,0
					c0-0.289,0.234-0.523,0.523-0.523h2.049C54.35,59.546,54.585,59.781,54.585,60.069L54.585,60.069z"/>
			</g>
			<g>
				<path fill="#676767" d="M58.336,63.718c0,0.289-0.233,0.523-0.521,0.523h-2.052c-0.289,0-0.521-0.234-0.521-0.523l0,0
					c0-0.287,0.232-0.521,0.521-0.521h2.051C58.102,63.197,58.336,63.431,58.336,63.718L58.336,63.718z"/>
			</g>
			<g>
				<path fill="#676767" d="M62.064,60.807c0,0.289-0.234,0.523-0.521,0.523h-2.051c-0.289,0-0.521-0.234-0.521-0.523l0,0
					c0-0.287,0.232-0.521,0.521-0.521h2.051C61.83,60.285,62.064,60.52,62.064,60.807L62.064,60.807z"/>
			</g>
			<path fill="#676767" d="M52.316,58.973h1.488v-1.85h-1.488V58.973z M59.795,57.123v2.586h1.488v-2.586H59.795z M56.057,62.599
				h1.488v-5.477h-1.488V62.599z M59.795,66.792h1.488v-4.799h-1.488V66.792z M52.316,66.792h1.488v-5.537h-1.488V66.792z
				 M56.057,66.792h1.488v-1.91h-1.488V66.792z"/>
		</g>
	</g>
	<g>
		<g>
			<circle fill="none" stroke="#C63D28" stroke-width="0.8905" stroke-miterlimit="10" cx="322.572" cy="61.957" r="9"/>
		</g>
		<path fill="#676767" d="M317.072,60.021v3.623h1.629l3.639,2.701v-9.024l-3.639,2.7H317.072z M324.252,58.517
			c-0.213-0.214-0.561-0.214-0.772,0c-0.216,0.214-0.216,0.56,0,0.773l0,0c0.702,0.703,1.053,1.62,1.053,2.541
			c0,0.924-0.351,1.842-1.053,2.547c-0.216,0.214-0.216,0.562,0,0.772c0.106,0.107,0.245,0.16,0.387,0.16s0.279-0.053,0.388-0.16
			c0.916-0.916,1.375-2.121,1.375-3.319C325.627,60.632,325.166,59.431,324.252,58.517z M325.98,56.783
			c-0.215-0.214-0.561-0.214-0.773,0c-0.215,0.214-0.215,0.561,0,0.774l0,0c1.18,1.181,1.77,2.722,1.77,4.268
			c0,1.554-0.586,3.102-1.77,4.286c-0.215,0.213-0.215,0.56,0,0.772c0.105,0.106,0.246,0.16,0.387,0.16
			c0.14,0,0.279-0.054,0.388-0.16c1.396-1.396,2.091-3.231,2.091-5.059C328.072,60,327.371,58.173,325.98,56.783z"/>
	</g>
	<g>
		<path fill="#676767" d="M357.885,61.565"/>
		
			<ellipse fill="none" stroke="#C73C28" stroke-width="0.8884" stroke-miterlimit="10" cx="366.871" cy="61.916" rx="9" ry="8.959"/>
		<path fill="#676767" d="M375.344,64.933"/>
		<g>
			<path fill="#676767" d="M365.758,62.823l-0.756,3.562h-1.936l1.961-9.28h2.279c1.002,0,1.756,0.216,2.26,0.647
				c0.504,0.431,0.756,1.064,0.756,1.898c0,0.668-0.176,1.243-0.527,1.723s-0.856,0.837-1.518,1.068l1.658,3.942h-2.108
				l-1.313-3.562L365.758,62.823L365.758,62.823z M366.094,61.224h0.494c0.555,0,0.986-0.121,1.295-0.362
				c0.311-0.241,0.465-0.609,0.465-1.104c0-0.347-0.102-0.607-0.303-0.781s-0.518-0.26-0.949-0.26h-0.469L366.094,61.224z"/>
		</g>
	</g>
	<g>
		<circle fill="none" stroke="#C63D28" stroke-width="0.8905" stroke-miterlimit="10" cx="278.273" cy="61.957" r="9"/>
		<g>
			<g>
				<path fill="#676767" d="M278.68,64.011c-0.688,0.002-1.375-0.268-1.893-0.787l0,0l-0.082-0.082l1.176-1.176l0.082,0.082
					c0.203,0.201,0.459,0.299,0.717,0.301l0,0c0.27-0.002,0.531-0.1,0.732-0.301l0,0l1.928-1.928
					c0.201-0.203,0.299-0.461,0.301-0.727l0,0c-0.002-0.264-0.1-0.521-0.301-0.725l0,0l-0.082-0.08
					c-0.201-0.203-0.459-0.301-0.727-0.301l0,0c-0.264,0-0.52,0.098-0.725,0.301l0,0l-0.793,0.793c-0.324,0.324-0.85,0.324-1.176,0
					l0,0c-0.324-0.326-0.324-0.852,0-1.178l0,0l0.793-0.793c0.523-0.523,1.217-0.787,1.9-0.787l0,0c0.686,0,1.379,0.264,1.9,0.787
					l0,0l0.084,0.082c0.521,0.521,0.787,1.215,0.787,1.9l0,0c0,0.686-0.264,1.379-0.787,1.902l0,0l-1.93,1.928
					c-0.525,0.527-1.223,0.787-1.904,0.787l0,0h-0.002l0,0V64.011z"/>
			</g>
			<g>
				<path fill="#676767" d="M276.002,67.291c-0.688,0-1.375-0.27-1.893-0.789l0,0l-0.082-0.082
					c-0.525-0.523-0.789-1.219-0.787-1.902l0,0c-0.002-0.688,0.264-1.377,0.787-1.897l0,0l1.928-1.93
					c0.521-0.523,1.217-0.787,1.9-0.785l0,0c0.537-0.002,1.08,0.16,1.541,0.484l0,0c0.076,0.037,0.146,0.088,0.211,0.152l0,0
					l0.148,0.148l0.082,0.082l0,0l0,0l-1.174,1.178h-0.002l-0.082-0.082c-0.203-0.203-0.459-0.299-0.725-0.301l0,0
					c-0.266,0.002-0.521,0.098-0.725,0.301l0,0l-1.928,1.928c-0.201,0.203-0.299,0.459-0.301,0.723l0,0
					c0.002,0.269,0.1,0.525,0.301,0.728l0,0l0.082,0.082c0.201,0.203,0.459,0.299,0.717,0.301l0,0
					c0.271-0.002,0.529-0.101,0.732-0.301l0,0l0.83-0.83c0.326-0.324,0.852-0.324,1.178,0l0,0c0.324,0.324,0.324,0.853,0,1.176l0,0
					l-0.832,0.83c-0.525,0.527-1.221,0.789-1.904,0.789l0,0C276.004,67.291,276.004,67.291,276.002,67.291L276.002,67.291z"/>
			</g>
		</g>
	</g>
	<g>
		<g>
			<circle fill="none" stroke="#C63D28" stroke-width="0.8905" stroke-miterlimit="10" cx="189.675" cy="61.957" r="9"/>
		</g>
		<path fill="#676767" d="M190.681,68.125c-0.24,0.242-0.631,0.242-0.875,0.001l-6.301-6.304c-0.242-0.24-0.242-0.632,0-0.873
			l0.492-0.492c0.238-0.24,0.631-0.24,0.871,0.001l6.305,6.304c0.24,0.241,0.24,0.631,0,0.872L190.681,68.125z"/>
		<g>
			<path fill="#676767" d="M193.644,60.99c-0.482,0.482-1.266,0.483-1.748,0.001l-1.256-1.256c-0.482-0.482-0.482-1.264,0.002-1.747
				l1.201-1.201c0.48-0.481,1.264-0.481,1.746,0.001l1.254,1.255c0.482,0.482,0.482,1.265,0.002,1.746L193.644,60.99z"/>
			<path fill="#676767" d="M189.907,63.278c-0.24,0.24-0.633,0.24-0.873,0l-0.684-0.682c-0.24-0.243-0.24-0.634,0.002-0.875
				l2.027-2.027c0.242-0.242,0.633-0.24,0.875,0l0.682,0.684c0.24,0.24,0.242,0.631,0,0.873L189.907,63.278z"/>
			<path fill="#676767" d="M190.28,58.825c0,0-0.086,1.051-0.877,1.842l1.557,1.556c0,0,0.852-0.896,1.846-0.874"/>
		</g>
		<path fill="#676767" d="M189.087,69.059c-0.121,0.121-0.316,0.121-0.439,0l-6.078-6.078c-0.119-0.119-0.119-0.315,0.002-0.438l0,0
			c0.119-0.119,0.314-0.119,0.438,0.001l6.078,6.077C189.206,68.743,189.208,68.938,189.087,69.059L189.087,69.059z"/>
	</g>
	<g>
		<path fill="#676767" d="M96.202,69.673l4.386-4.434c1.418,0.465,3.041,0.135,4.166-0.994c1.074-1.072,1.426-2.594,1.057-3.963
			l-2.318,2.318l-2.27-0.609l-0.609-2.271l2.316-2.316c-1.367-0.37-2.89-0.018-3.964,1.054c-1.08,1.082-1.43,2.615-1.049,3.988
			l-4.51,4.557"/>
		<circle fill="none" stroke="#C73C28" stroke-width="0.8905" stroke-miterlimit="10" cx="101.077" cy="61.957" r="9"/>
	</g>
	<g>
		<path fill="none" stroke="#C73C28" stroke-width="0.8904" stroke-miterlimit="10" d="M154.376,61.955c0,4.972-4.029,9.002-9,9.002
			s-9-4.03-9-9.002c0-4.969,4.029-8.998,9-8.998S154.376,56.985,154.376,61.955z"/>
		<path fill="#676767" d="M142.903,66.78h4.09V56.735h-4.09V66.78z M146.39,65.371h-1.094v-1.094h1.094V65.371L146.39,65.371z
			 M144.356,63.734V62.64h1.093v1.094H144.356z M146.39,62.098h-1.094v-1.093h1.094V62.098L146.39,62.098z M144.356,60.461v-1.094
			h1.093v1.094H144.356z M145.296,57.73h1.094v1.094h-1.094V57.73z M143.416,57.73h1.092v1.094h-1.092V57.73z M143.416,61.004h1.092
			v1.093h-1.092V61.004z M143.416,64.277h1.092v1.094h-1.092V64.277z M139.876,66.78h2.453v-6.868h-2.453V66.78z M140.556,60.452
			h1.092v1.092h-1.092V60.452z M140.556,62.394h1.092v1.094h-1.092V62.394z M140.556,64.261h1.092v1.092h-1.092V64.261z
			 M150.392,60.879v-1.306h-0.596V58.3h-0.426v-1.185h-0.359V58.3h-0.428v1.273h-0.596v1.306h-0.484v5.9h3.373v-5.9H150.392z
			 M149.155,66.029h-1.094v-1.092h1.094V66.029z M149.155,62.679h-1.094v-1.093h1.094V62.679z M150.437,64.34h-1.092v-1.093h1.092
			V64.34z"/>
	</g>
</g>
<g>
	<g>
		<circle fill="none" stroke="#C63D28" stroke-width="0.8905" stroke-miterlimit="10" cx="189.675" cy="17.436" r="9"/>
		<path fill="#676767" d="M192.95,13.522h-6.553l-1.928,4.931h10.408L192.95,13.522z M184.175,19.22v2.132h11V19.22H184.175z
			 M185.575,20.773h-0.623v-0.843h0.623V20.773z M187.101,20.773h-0.623v-0.843h0.623V20.773z M188.626,20.773h-0.623v-0.843h0.623
			V20.773z M193.933,20.808c-0.271,0-0.492-0.22-0.492-0.491s0.221-0.492,0.492-0.492s0.491,0.221,0.491,0.492
			S194.204,20.808,193.933,20.808z"/>
	</g>
	<g>
		<path fill="none" stroke="#C73C28" stroke-width="0.8904" stroke-miterlimit="10" d="M242.974,17.434c0,4.972-4.029,9.002-9,9.002
			s-9-4.03-9-9.002c0-4.969,4.029-8.998,9-8.998S242.974,12.464,242.974,17.434z"/>
		<path fill="#676767" d="M238.354,20.521l-0.055-0.056l0,0l-2.172-2.172c0.302-0.521,0.478-1.122,0.48-1.767
			c0.014-1.97-1.574-3.579-3.546-3.591c-0.009,0-0.016,0-0.022,0c-1.963,0-3.559,1.583-3.57,3.547
			c-0.012,1.973,1.576,3.578,3.547,3.592c0.008,0,0.016,0,0.023,0c0.654,0,1.27-0.178,1.797-0.486l2.17,2.17h0.001l0.054,0.056
			c0.164,0.164,0.432,0.164,0.596,0l0.697-0.698C238.519,20.951,238.519,20.687,238.354,20.521z M234.913,18.392
			c-0.502,0.498-1.166,0.771-1.873,0.771h-0.018c-1.467-0.007-2.65-1.209-2.643-2.674c0.01-1.458,1.203-2.645,2.66-2.645h0.018
			c0.71,0.006,1.375,0.287,1.875,0.792c0.498,0.506,0.771,1.177,0.768,1.886C235.694,17.228,235.415,17.893,234.913,18.392z"/>
	</g>
	<g>
		<g>
			<circle fill="none" stroke="#C63D28" stroke-width="0.8905" stroke-miterlimit="10" cx="366.871" cy="17.436" r="9"/>
		</g>
		<g>
			<polygon fill="#676767" points="366.871,16.475 369.18,16.475 369.947,15.013 369.063,11.936 366.871,11.936 364.68,11.936 
				363.793,15.013 364.563,16.475 			"/>
			<polygon fill="#676767" points="366.871,20.205 370.641,20.242 370.641,22.012 372.447,22.012 372.447,15.627 370.641,15.627 
				369.564,17.475 366.871,17.475 364.18,17.475 363.102,15.627 361.295,15.627 361.295,22.012 363.102,22.012 363.102,20.242 			
				"/>
			<polygon fill="#676767" points="366.871,22.936 369.832,22.936 369.332,21.127 366.871,21.127 364.41,21.127 363.908,22.936 			
				"/>
		</g>
	</g>
	<g>
		<circle fill="none" stroke="#C73C28" stroke-width="0.8905" stroke-miterlimit="10" cx="278.273" cy="17.436" r="9"/>
		<g>
			
				<line fill="none" stroke="#676868" stroke-width="1.2078" stroke-miterlimit="10" x1="274.18" y1="14.17" x2="282.367" y2="14.17"/>
			
				<line fill="none" stroke="#676868" stroke-width="1.2078" stroke-miterlimit="10" x1="274.18" y1="16.349" x2="282.367" y2="16.349"/>
			
				<line fill="none" stroke="#676868" stroke-width="1.2078" stroke-miterlimit="10" x1="274.18" y1="18.524" x2="282.367" y2="18.524"/>
			
				<line fill="none" stroke="#676868" stroke-width="1.2078" stroke-miterlimit="10" x1="274.18" y1="20.7" x2="282.367" y2="20.7"/>
		</g>
	</g>
	<g>
		<circle fill="none" stroke="#C63D28" stroke-width="0.8905" stroke-miterlimit="10" cx="56.777" cy="17.436" r="9"/>
		<g>
			<g>
				<polygon fill="#676767" points="53.083,22.818 53.083,12.553 54.275,12.553 54.275,22.818 				"/>
			</g>
			<g>
				<path fill="#676767" d="M58.498,18.112c-2.241-2.06-3.573-0.138-3.573-0.138v-5.408c0,0,2.958-1.604,4.292,0.857v-0.004
					c1.988,3.236,3.863,1.549,3.863,1.549S60.741,20.172,58.498,18.112z"/>
			</g>
		</g>
	</g>
	<g>
		<circle fill="none" stroke="#C63D28" stroke-width="0.8905" stroke-miterlimit="10" cx="322.572" cy="17.436" r="9"/>
		<path fill="#676767" d="M318.658,13.521c-2.162,2.162-2.162,5.668,0,7.83c2.162,2.16,5.666,2.16,7.828,0
			c2.162-2.162,2.162-5.668,0-7.83S320.818,11.359,318.658,13.521z M323.979,17.436l2.109,2.109l-1.408,1.41l-2.107-2.109
			l-2.109,2.109l-1.408-1.41l2.109-2.109l-2.109-2.109l1.408-1.406l2.107,2.109l2.109-2.109l1.408,1.406L323.979,17.436z"/>
	</g>
	<g>
		<g>
			<polyline fill="none" stroke="#676767" stroke-width="1.2" stroke-miterlimit="10" points="99.717,15.416 99.717,12.967 
				104.772,12.967 106.783,15.136 106.783,22.172 104.389,22.172 			"/>
		</g>
		<g>
			<path fill="none" stroke="#676767" stroke-width="1.2" stroke-miterlimit="10" d="M103.936,25.971v-7.51l-2.195-2.844h-5.527
				v9.506"/>
		</g>
		<circle fill="none" stroke="#C63D28" stroke-width="0.8905" stroke-miterlimit="10" cx="101.077" cy="17.436" r="9"/>
	</g>
	<g>
		<path fill="#676767" d="M148.913,11.333h-7.074c-0.396,0-0.713,0.319-0.713,0.713v13.234c0,0,3.854,1.158,4.25,1.158l0,0l0,0
			c0.393,0,4.25-1.158,4.25-1.158V12.044C149.626,11.651,149.306,11.333,148.913,11.333z M143.862,24.94h-1.552v-1.553h1.552V24.94z
			 M143.862,22.657h-1.552v-1.552h1.552V22.657z M146.196,24.94h-1.553v-1.553h1.553V24.94z M146.196,22.657h-1.553v-1.552h1.553
			V22.657z M144.712,19.963c0-0.367,0.297-0.664,0.664-0.664s0.664,0.297,0.664,0.664s-0.296,0.664-0.664,0.664
			S144.712,20.33,144.712,19.963z M148.499,24.94h-1.553v-1.553h1.553V24.94z M148.499,22.657h-1.553v-1.552h1.553V22.657z
			 M148.499,18.992h-6.188v-6.519h6.188V18.992z"/>
		<circle fill="none" stroke="#C73C28" stroke-width="0.8905" stroke-miterlimit="10" cx="145.376" cy="17.436" r="9"/>
	</g>
	<g>
		<circle fill="none" stroke="#C73C28" stroke-width="0.8905" stroke-miterlimit="10" cx="12.479" cy="17.436" r="9"/>
		<path fill="none" stroke="#676767" stroke-width="1.5" stroke-miterlimit="10" d="M12.535,22.158L10.897,20H9.499
			c-0.75,0-1.356-0.229-1.802-0.678c-0.716-0.719-0.718-1.741-0.718-1.783v-0.978c0-1.925,1.646-2.449,2.515-2.458h5.985
			c0.76,0,1.37,0.229,1.813,0.683c0.701,0.716,0.688,1.723,0.688,1.766v0.969c0,1.961-1.622,2.479-2.479,2.479h-1.444L12.535,22.158
			z"/>
	</g>
</g>
<g>
	<g>
		<path fill="#989898" d="M12.873,115.395v-7.761c0-0.855-0.697-1.55-1.559-1.55H3.478C3.568,115.205,12.873,115.395,12.873,115.395
			z"/>
		<ellipse fill="#989898" cx="8.105" cy="103.232" rx="2.25" ry="2.25"/>
		<path fill="#676767" d="M21.23,109.453h-9.574c-1.025,0-1.861,0.827-1.861,1.853v3.591
			C17.445,117.303,21.23,109.453,21.23,109.453z"/>
		<ellipse fill="#676868" cx="16.638" cy="105.528" rx="3.115" ry="3.103"/>
		<path fill="#676767" d="M3.507,106.085"/>
		
			<ellipse fill="none" stroke="#C73C28" stroke-width="0.8884" stroke-miterlimit="10" cx="12.494" cy="106.436" rx="9" ry="8.959"/>
		<path fill="#676767" d="M20.966,109.453"/>
	</g>
	<g>
		<circle fill="none" stroke="#C73C28" stroke-width="0.8905" stroke-miterlimit="10" cx="233.977" cy="106.477" r="9"/>
		<path fill="#676767" d="M239.512,107.08v-1.261l-0.18-0.058l-1.346-0.441l-0.361-0.868l0.691-1.465l-0.891-0.89l-0.166,0.085
			l-1.266,0.641l-0.869-0.358l-0.545-1.524h-1.262l-0.056,0.176l-0.442,1.348l-0.867,0.362l-1.465-0.692l-0.89,0.891l0.085,0.166
			l0.643,1.264l-0.361,0.87l-1.524,0.546v1.261l0.179,0.058l1.348,0.44l0.361,0.868l-0.692,1.466l0.891,0.889l0.167-0.082
			l1.266-0.644l0.869,0.359l0.545,1.523h1.261l0.058-0.176l0.439-1.351l0.869-0.36l1.463,0.69l0.892-0.891l-0.084-0.166
			l-0.644-1.267l0.361-0.869L239.512,107.08z M233.977,108.898c-1.339,0-2.423-1.084-2.423-2.423c0-1.338,1.084-2.423,2.423-2.423
			c1.338,0,2.422,1.085,2.422,2.423C236.398,107.814,235.314,108.898,233.977,108.898z"/>
	</g>
	<g>
		<circle fill="none" stroke="#C63D28" stroke-width="0.8905" stroke-miterlimit="10" cx="189.678" cy="106.477" r="9"/>
		<path fill="#676767" d="M189.678,108.486c1.188,0,2.152-0.965,2.152-2.152v-4.088c0-1.188-0.965-2.152-2.152-2.152
			c-1.189,0-2.152,0.965-2.152,2.152v4.088C187.525,107.521,188.488,108.486,189.678,108.486z M192.605,104.904v1.436
			c0,0.811-0.326,1.539-0.857,2.07s-1.26,0.857-2.07,0.857c-0.809,0-1.539-0.326-2.068-0.857c-0.533-0.531-0.859-1.26-0.859-2.07
			v-1.436h-1.072v1.436c0,2.027,1.508,3.701,3.463,3.963v1.487h-1.756v1.07h4.584v-1.07h-1.756v-1.487
			c1.955-0.263,3.465-1.937,3.465-3.963v-1.436H192.605z"/>
	</g>
	<g>
		<g>
			<circle fill="none" stroke="#C63D28" stroke-width="0.8905" stroke-miterlimit="10" cx="145.38" cy="106.477" r="9"/>
		</g>
		<path fill="#676767" d="M145.315,102.848l-0.024-2.377l-4.769,4.077l4.851,3.969l-0.022-2.27c4.786,0.568,2.771,3.472,0.094,6.24
			C154.771,106.18,149.116,103.438,145.315,102.848z"/>
	</g>
	<g>
		<g>
			<circle fill="none" stroke="#C63D28" stroke-width="0.8905" stroke-miterlimit="10" cx="101.082" cy="106.477" r="9"/>
		</g>
		<path fill="#676767" d="M101.303,112.486c-2.678-2.768-4.693-5.672,0.094-6.24l-0.022,2.27l4.851-3.969l-4.77-4.077l-0.023,2.377
			C97.63,103.438,91.975,106.18,101.303,112.486z"/>
	</g>
	<g>
		<ellipse fill="#676868" cx="56.784" cy="105.65" rx="3.117" ry="3.103"/>
		<path fill="#676868" stroke="#FFFFFF" stroke-width="0.8884" stroke-miterlimit="10" d="M63.016,113.239v-2.154
			c0-1.021-0.834-1.854-1.859-1.854h-8.746c-1.027,0-1.861,0.831-1.861,1.854v2.154C50.549,113.239,56.459,118.271,63.016,113.239z"
			/>
		
			<ellipse fill="none" stroke="#C73C28" stroke-width="0.8884" stroke-miterlimit="10" cx="56.784" cy="106.436" rx="9" ry="8.959"/>
	</g>
	<g>
		<path fill="none" stroke="#C73C28" stroke-width="0.8905" stroke-miterlimit="10" d="M287.274,106.475
			c0,4.973-4.029,9.002-9,9.002c-4.973,0-9-4.029-9-9.002c0-4.968,4.029-8.998,9-8.998S287.274,101.507,287.274,106.475z"/>
		<g>
			<circle fill="none" stroke="#676767" stroke-width="1.7" stroke-miterlimit="10" cx="278.274" cy="106.477" r="5"/>
			
				<line fill="none" stroke="#676767" stroke-width="1.7" stroke-miterlimit="10" x1="274.681" y1="103.002" x2="281.749" y2="110.07"/>
		</g>
	</g>
	<g>
		<path fill="none" stroke="#C73C28" stroke-width="0.8905" stroke-miterlimit="10" d="M331.572,106.475
			c0,4.972-4.029,9.002-9,9.002c-4.973,0-9-4.03-9-9.002c0-4.968,4.029-8.998,9-8.998S331.572,101.507,331.572,106.475z"/>
		<path fill="#676767" d="M322.572,100.941c-3.057,0-5.536,2.477-5.536,5.533c0,3.061,2.479,5.538,5.536,5.538
			c3.061,0,5.535-2.479,5.535-5.538C328.107,103.418,325.633,100.941,322.572,100.941z M323.569,107.472v2.983h-1.995v-2.983h-2.98
			v-1.993h2.98v-2.98h1.994v2.98h2.982v1.993H323.569z"/>
	</g>
</g>
</svg>
