<?xml version="1.0" encoding="utf-8"?>
<!-- Generator: Adobe Illustrator 16.0.0, SVG Export Plug-In . SVG Version: 6.00 Build 0)  -->
<!DOCTYPE svg PUBLIC "-//W3C//DTD SVG 1.1//EN" "http://www.w3.org/Graphics/SVG/1.1/DTD/svg11.dtd">
<svg version="1.1" id="Layer_1" xmlns="http://www.w3.org/2000/svg" xmlns:xlink="http://www.w3.org/1999/xlink" x="0px" y="0px"
	 width="293.167px" height="80px" viewBox="0 0 293.167 80" enable-background="new 0 0 293.167 80" xml:space="preserve">
<g>
	<g>
		<path fill="#989798" d="M207.814,63.006h-4.668V34.375c0-4.629-0.868-7.968-2.58-9.923c-1.678-1.919-4.51-2.892-8.418-2.892
			c-2.3,0-4.338,0.337-6.057,1.003c-1.688,0.652-3.13,1.643-4.285,2.942c-1.157,1.308-1.988,2.853-2.468,4.593
			c-0.5,1.807-0.754,4.809-0.754,8.924v23.984h-4.664V0h4.664v22.766c1.173-1.404,2.588-2.561,4.22-3.448
			c2.613-1.421,5.729-2.141,9.264-2.141c5.217,0,9.19,1.38,11.811,4.104c2.611,2.714,3.936,6.835,3.936,12.246V63.006z"/>
	</g>
</g>
<g>
	<g>
		<path fill="#989798" d="M272.855,63.006c-4.241,0-8.365-1.01-11.031-2.701c-2.828-1.789-5.146-4.521-6.889-8.125
			c-0.097-0.223-2.142-5.1-1.947-15.315L253.605,0h4.674l-0.53,23.522c1.298-1.916,2.867-3.482,4.683-4.67
			c2.885-1.891,6.393-2.849,10.424-2.849c6.125,0,11.044,2.144,14.621,6.372c3.531,4.18,5.322,9.943,5.322,17.129
			c0,7.189-1.783,12.951-5.301,17.125C283.935,60.861,279.008,63.006,272.855,63.006z M272.855,20.306
			c-4.67,0-8.396,1.688-11.076,5.02c-2.734,3.395-4.121,8.165-4.121,14.179c0,6.027,0.561,10.738,3.299,14.138
			c2.566,3.189,6.903,5.018,11.898,5.018c4.695,0,8.451-1.689,11.164-5.021c2.758-3.398,4.156-8.154,4.156-14.134
			c0-6.007-1.398-10.776-4.158-14.176C281.307,21.997,277.551,20.306,272.855,20.306z"/>
	</g>
</g>
<path fill="#989798" d="M230.5,63.006c-5.217,0-9.19-1.389-11.811-4.127c-2.61-2.725-3.934-6.852-3.934-12.264V16.892h4.586v28.872
	c0,4.604,0.875,7.938,2.601,9.908c1.69,1.932,4.543,2.91,8.478,2.91c3.982,0,6.97-1.006,8.638-2.91
	c1.726-1.971,2.601-5.305,2.601-9.908V16.892h4.588v29.723c0,5.414-1.324,9.541-3.936,12.264
	C239.69,61.617,235.717,63.006,230.5,63.006z"/>
<g>
	<path fill="#FFFFFF" d="M132.426,63.006c-2.466,0-4.287-0.734-5.414-2.184c-1.081-1.395-1.605-3.559-1.605-6.615V21.356h-5.413
		v-4.301h5.413V0h4.627v17.055h7.797v4.301h-7.797v30.107c0,3.934,0.385,5.484,0.709,6.09c0.374,0.703,1.037,1.029,2.088,1.029
		c0.516,0,1.062-0.043,1.625-0.131c0.577-0.088,1.284-0.248,2.102-0.48l1.273-0.359v4.492l-0.764,0.186
		c-0.895,0.219-1.735,0.395-2.498,0.521C133.805,62.939,133.083,63.006,132.426,63.006z"/>
</g>
<g>
	<path fill="#C73C28" d="M155.129,37.606l-3.052,2.847l-6.979-6.916c-1.197-1.71-1.893-3.756-1.893-5.95
		c0-5.983,5.175-10.852,11.505-10.852c6.328,0,11.476,4.868,11.476,10.852c0,3.746-2.019,7.056-5.082,9.006l-2.731-2.859
		c2.267-1.213,3.8-3.514,3.8-6.146c0-3.892-3.347-7.057-7.462-7.057c-4.114,0-7.471,3.165-7.471,7.057
		c0,1.417,0.446,2.736,1.214,3.844L155.129,37.606z"/>
	<ellipse fill="#C73C28" cx="154.71" cy="27.29" rx="3.95" ry="3.735"/>
</g>
<g>
	<path fill="#FFFFFF" d="M154.291,42.35l3.053-2.845l6.959,6.916c1.189,1.709,1.883,3.754,1.883,5.951
		c0,5.98-5.147,10.85-11.476,10.85c-6.33,0-11.505-4.869-11.505-10.85c0-3.746,2.03-7.059,5.107-9.008l2.736,2.859
		c-2.269,1.213-3.81,3.514-3.81,6.148c0,3.891,3.356,7.055,7.471,7.055c4.115,0,7.462-3.164,7.462-7.055
		c0-1.418-0.443-2.738-1.207-3.846L154.291,42.35z"/>
	<ellipse fill="#FFFFFF" cx="154.71" cy="52.668" rx="3.95" ry="3.736"/>
</g>
<g>
	<path fill="#FFFFFF" d="M4.687,63.006H0V41.508c0.009-0.657,0.095-6.394,0.449-9.55C1.431,23.19,7.79,19.323,8.06,19.162
		c2.292-1.532,5.169-2.317,8.53-2.317h1v4.524l-0.959,0.039c-4.301,0.175-7.38,1.663-9.152,4.425
		c-1.853,2.889-2.792,7.994-2.792,15.172V63.006z"/>
</g>
<g>
	<path fill="#FFFFFF" d="M54.996,78.701c-5.093,0-9.246-1.244-12.344-3.697c-3.165-2.504-4.798-5.879-4.856-10.029l-0.014-1.014
		h4.489l0.048,0.951c0.147,2.965,1.332,5.221,3.621,6.895c2.338,1.709,5.604,2.574,9.707,2.574c3.437,0,6.362-0.588,8.693-1.746
		c2.29-1.141,4.098-2.861,5.375-5.113c0.619-1.113,1.074-2.447,1.353-3.961c0.286-1.564,0.431-4.299,0.431-8.125v-0.531
		c-1.329,1.906-2.976,3.494-4.912,4.732c-3.015,1.928-6.585,2.904-10.613,2.904c-6.118,0-11.032-2.176-14.607-6.465
		c-3.53-4.236-5.319-10.051-5.319-17.287c0-7.266,1.798-13.078,5.345-17.273c3.587-4.246,8.548-6.398,14.745-6.398
		c4.113,0,7.74,0.999,10.781,2.97c3.089,2.002,5.579,6.028,5.936,6.876c0.049,0.117,0.127,0.268,0.225,0.459
		c0.524,1.025,1.463,2.859,2.141,5.832c0.754,3.304,0.81,5.965,0.84,7.395l0.004,0.186c0.024,1.104,0.008,13.554,0,18.855l0,0.271
		c0,3.344-0.222,5.949-0.659,7.744c-0.448,1.836-1.202,3.541-2.24,5.068c-1.787,2.619-4.26,4.623-7.352,5.953
		C62.769,78.037,59.13,78.701,54.996,78.701z M56.135,19.438c-4.709,0-8.481,1.704-11.211,5.064
		c-2.782,3.423-4.192,8.229-4.192,14.287c0,6.031,1.411,10.824,4.192,14.246c2.73,3.361,6.502,5.064,11.211,5.064
		c4.708,0,8.472-1.703,11.188-5.062c2.77-3.424,4.174-8.217,4.174-14.248c0-6.059-1.404-10.865-4.174-14.289
		C64.607,21.141,60.843,19.438,56.135,19.438z"/>
</g>
<g>
	<path fill="#FFFFFF" d="M117.572,63.006h-4.668v-28.63c0-4.629-0.868-7.969-2.58-9.923c-1.677-1.919-4.509-2.892-8.418-2.892
		c-2.293,0-4.325,0.338-6.038,1.003c-1.686,0.65-3.126,1.64-4.282,2.942c-1.156,1.304-1.987,2.85-2.47,4.593
		c-0.5,1.805-0.753,4.808-0.753,8.923v23.984h-4.664V0h4.664v22.766c1.173-1.404,2.588-2.561,4.222-3.447
		c2.611-1.422,5.721-2.143,9.241-2.143c5.215,0,9.188,1.381,11.811,4.104c2.611,2.717,3.936,6.837,3.936,12.248V63.006z"/>
</g>
<polygon fill="#C93E28" points="24.251,13.954 24.251,0 38.5,0 24.263,13.954 "/>
<path fill="#FFFFFF" d="M28.837,63.006h-4.586V18.065h4.586V63.006z"/>
</svg>
