<?xml version="1.0" encoding="utf-8"?>
<!-- Generator: Adobe Illustrator 16.0.0, SVG Export Plug-In . SVG Version: 6.00 Build 0)  -->
<!DOCTYPE svg PUBLIC "-//W3C//DTD SVG 1.1//EN" "http://www.w3.org/Graphics/SVG/1.1/DTD/svg11.dtd">
<svg version="1.1" id="Layer_1" xmlns="http://www.w3.org/2000/svg" xmlns:xlink="http://www.w3.org/1999/xlink" x="0px" y="0px"
	 width="330.834px" height="80px" viewBox="0 0 330.834 80" enable-background="new 0 0 330.834 80" xml:space="preserve">
<g>
	<path fill="#C93E28" d="M182.229,61.994c5.586,0.006,11.207-2.143,15.475-6.408l0,0c4.267-4.27,6.422-9.889,6.416-15.481l0,0
		c0.006-5.585-2.149-11.212-6.416-15.478l0,0c-1.297-1.297-3.409-1.297-4.704,0l0,0c-1.298,1.301-1.298,3.407,0,4.706l0,0
		c2.984,2.983,4.464,6.865,4.464,10.771l0,0c0,3.913-1.479,7.79-4.464,10.778l0,0c-2.983,2.979-6.862,4.461-10.769,4.461l0,0
		c-3.916,0-7.79-1.48-10.781-4.461l0,0c-2.982-2.988-4.465-6.865-4.467-10.778l0,0c0.002-3.911,1.484-7.788,4.467-10.771l0,0l0,0
		c1.302-1.303,1.302-3.407,0-4.706l0,0c-1.299-1.297-3.403-1.297-4.707,0l0,0c-4.273,4.266-6.417,9.893-6.413,15.478l0,0
		c-0.004,5.592,2.14,11.211,6.413,15.481l0,0c4.272,4.266,9.885,6.408,15.467,6.408l0,0
		C182.218,61.994,182.222,61.994,182.229,61.994L182.229,61.994z"/>
	<path fill="#C93E28" d="M185.555,40.105V20.026c0-1.84-1.49-3.328-3.326-3.328l0,0c-1.842,0-3.332,1.488-3.332,3.328l0,0v20.079
		c0,1.84,1.49,3.325,3.332,3.325l0,0C184.064,43.436,185.555,41.945,185.555,40.105L185.555,40.105z"/>
</g>
<g>
	<g>
		<path fill="#333333" d="M17.413,63.002c-4.957,0-9.005-1.309-12.03-3.891C2.34,56.51,0.566,52.869,0.111,48.289L0,47.186h4.516
			l0.153,0.82c0.649,3.469,2.047,6.115,4.151,7.865c2.1,1.748,4.961,2.635,8.504,2.635c3.552,0,6.419-0.82,8.521-2.438
			c2.045-1.586,3.039-3.623,3.039-6.227c0-1.822-0.556-3.248-1.7-4.357c-1.213-1.174-3.227-2.148-5.985-2.898l-2.245-0.6
			c-7.125-1.82-11.656-3.55-13.848-5.289c-1.208-0.936-2.162-2.129-2.831-3.545c-0.663-1.398-1-2.955-1-4.625
			c0-3.63,1.495-6.625,4.443-8.902c2.869-2.215,6.641-3.338,11.21-3.338c4.289,0,7.856,1.182,10.602,3.51
			c2.756,2.336,4.36,5.578,4.769,9.637l0.107,1.105h-4.517l-0.116-0.867c-0.419-2.964-1.581-5.24-3.453-6.764
			c-1.892-1.543-4.501-2.324-7.754-2.324c-3.158,0-5.757,0.748-7.725,2.225c-1.902,1.428-2.827,3.193-2.827,5.394
			c0,3.667,4.136,6.608,12.292,8.743l0.872,0.25c5.513,1.411,9.194,2.992,11.241,4.832c2.128,1.902,3.207,4.559,3.207,7.895
			c0,3.779-1.572,6.953-4.672,9.432C25.922,61.773,22.039,63.002,17.413,63.002z"/>
	</g>
</g>
<g>
	<g>
		<path fill="#333333" d="M49.346,63.006c-2.451,0-4.265-0.732-5.39-2.174c-1.076-1.393-1.599-3.545-1.599-6.584V21.624h-5.373
			v-4.296h5.377V0h4.623v17.327h7.742v4.298h-7.742v29.9c-0.007,3.9,0.375,5.441,0.697,6.047c0.371,0.689,1.027,1.012,2.063,1.012
			c0.522,0,1.065-0.043,1.614-0.127c0.554-0.086,1.238-0.242,2.093-0.48l1.274-0.359v4.477l-0.757,0.193
			c-0.816,0.203-1.629,0.375-2.486,0.523C50.673,62.943,49.976,63.006,49.346,63.006z"/>
	</g>
</g>
<g>
	<path fill="#333333" d="M119.245,63.002c-6.116,0-11.013-2.133-14.555-6.34c-3.498-4.152-5.272-9.879-5.272-17.021
		c0-7.137,1.78-12.865,5.291-17.025c3.561-4.203,8.451-6.334,14.536-6.334c4.008,0,7.494,0.953,10.363,2.832
		c1.806,1.184,3.367,2.744,4.658,4.652L133.915,0h4.665l0.408,37.027c0.195,10.136-1.824,14.97-1.91,15.171
		c-1.749,3.611-4.057,6.336-6.867,8.117C127.558,61.998,123.458,63.002,119.245,63.002z M119.245,20.579
		c-4.664,0-8.393,1.678-11.081,4.988c-2.738,3.371-4.127,8.105-4.127,14.074c0,5.941,1.389,10.664,4.127,14.037
		c2.688,3.307,6.417,4.984,11.081,4.984c4.958,0,9.261-1.814,11.807-4.98c2.719-3.377,3.275-8.055,3.275-14.041
		c0.002-5.969-1.374-10.705-4.091-14.078C127.578,22.256,123.88,20.579,119.245,20.579z"/>
</g>
<g>
	<path fill="#989898" d="M310.464,63.002c-4.213,0-8.311-1.004-10.962-2.686c-2.815-1.783-5.123-4.508-6.857-8.098
		c-0.097-0.225-2.116-5.115-1.924-15.195L291.132,0h4.668l-0.355,23.766c1.292-1.907,2.853-3.467,4.656-4.652
		c2.872-1.879,6.358-2.832,10.363-2.832c6.086,0,10.978,2.131,14.537,6.334c3.511,4.159,5.291,9.887,5.291,17.025
		c0,7.144-1.773,12.871-5.27,17.021C321.476,60.869,316.578,63.002,310.464,63.002z M310.468,20.579
		c-4.638,0-8.336,1.678-10.992,4.984c-2.715,3.371-4.092,8.107-4.092,14.078c0,5.986,0.557,10.664,3.273,14.041
		c2.547,3.166,6.852,4.98,11.811,4.98c4.662,0,8.391-1.678,11.082-4.984c2.738-3.375,4.127-8.098,4.127-14.037
		c0-5.967-1.389-10.701-4.128-14.075C318.858,22.256,315.13,20.579,310.468,20.579z"/>
</g>
<g>
	<g>
		<path fill="#333333" d="M152.251,61.842h-4.58V17.167h4.58V61.842z"/>
	</g>
</g>
<polygon fill="#C93E28" points="147.671,13.954 147.671,0 161.92,0 147.683,13.954 "/>
<g>
	<path fill="#989898" d="M245.158,61.838h-4.666V33.379c0-4.6-0.86-7.914-2.558-9.85c-1.66-1.904-4.47-2.869-8.352-2.869
		c-2.274,0-4.293,0.334-5.997,0.992c-1.672,0.646-3.102,1.629-4.249,2.922c-1.151,1.297-1.975,2.83-2.448,4.555
		c-0.498,1.799-0.751,4.78-0.751,8.865v23.843h-4.653V0h4.657v21.814c1.162-1.385,2.562-2.525,4.177-3.402
		c2.592-1.412,5.683-2.129,9.186-2.129c5.185,0,9.134,1.371,11.74,4.078c2.597,2.699,3.914,6.795,3.914,12.177V61.838z"/>
</g>
<g>
	<path fill="#333333" d="M77.566,63.006c-5.117,0-9.015-1.361-11.584-4.047c-2.56-2.674-3.857-6.721-3.857-12.027V16.813h4.514
		v29.285c0,4.508,0.857,7.773,2.549,9.703c1.653,1.891,4.445,2.85,8.3,2.85c3.901,0,6.826-0.986,8.459-2.85
		c1.689-1.93,2.547-5.195,2.547-9.703V16.813h4.515v30.119c0,5.309-1.298,9.355-3.858,12.027
		C86.58,61.645,82.683,63.006,77.566,63.006z"/>
</g>
<g>
	<path fill="#989898" d="M267.649,63.006c-5.117,0-9.015-1.361-11.584-4.047c-2.56-2.674-3.857-6.721-3.857-12.027V16.813h4.514
		v29.285c0,4.508,0.857,7.773,2.549,9.703c1.653,1.891,4.445,2.85,8.3,2.85c3.901,0,6.826-0.986,8.459-2.85
		c1.689-1.93,2.547-5.195,2.547-9.703V16.813h4.515v30.119c0,5.309-1.298,9.355-3.858,12.027
		C276.663,61.645,272.766,63.006,267.649,63.006z"/>
</g>
</svg>
