<?xml version="1.0" encoding="utf-8"?>
<!-- Generator: Adobe Illustrator 16.0.0, SVG Export Plug-In . SVG Version: 6.00 Build 0)  -->
<!DOCTYPE svg PUBLIC "-//W3C//DTD SVG 1.1//EN" "http://www.w3.org/Graphics/SVG/1.1/DTD/svg11.dtd">
<svg version="1.1" id="Layer_1" xmlns="http://www.w3.org/2000/svg" xmlns:xlink="http://www.w3.org/1999/xlink" x="0px" y="0px"
	 width="386.188px" height="80px" viewBox="0 0 386.188 80" enable-background="new 0 0 386.188 80" xml:space="preserve">
<g>
	<g>
		<path fill="#FFFFFF" d="M17.168,63.006c-4.889,0-8.88-1.291-11.868-3.838c-2.999-2.566-4.746-6.156-5.193-10.674L0,47.406h4.45
			L4.6,48.215c0.639,3.416,2.018,6.025,4.094,7.752c2.072,1.729,4.896,2.604,8.396,2.604c3.508,0,6.335-0.811,8.402-2.404
			c2.019-1.562,3-3.572,3-6.146c0-1.772-0.564-3.22-1.68-4.297c-1.191-1.156-3.182-2.119-5.908-2.863
			c-0.491-0.129-1.234-0.327-2.216-0.594c-7.024-1.792-11.497-3.497-13.658-5.208c-1.196-0.934-2.139-2.112-2.792-3.499
			c-0.653-1.378-0.986-2.912-0.986-4.561c0-3.582,1.476-6.535,4.385-8.781c2.83-2.187,6.55-3.295,11.059-3.295
			c4.234,0,7.755,1.165,10.457,3.463c2.726,2.312,4.308,5.51,4.702,9.507l0.108,1.087h-4.454l-0.116-0.855
			c-0.41-2.921-1.556-5.166-3.406-6.672c-1.863-1.521-4.438-2.291-7.646-2.291c-3.118,0-5.685,0.738-7.621,2.195
			c-1.879,1.412-2.792,3.154-2.792,5.326c0,3.619,4.081,6.52,12.129,8.623l0.854,0.245c5.354,1.372,9.093,2.977,11.095,4.764
			c2.098,1.881,3.161,4.5,3.161,7.789c0,3.73-1.553,6.861-4.61,9.305C25.561,61.793,21.73,63.006,17.168,63.006z"/>
	</g>
	<g>
		<g>
			<path fill="#FFFFFF" d="M173.419,62.166c-2.408,0-4.191-0.721-5.298-2.143c-1.062-1.369-1.575-3.492-1.575-6.49V0h4.551v50.843
				c0,3.854,0.376,5.371,0.691,5.966c0.361,0.685,1.007,1.002,2.023,1.002c0.504,0,1.037-0.043,1.583-0.129
				c0.569-0.087,1.264-0.244,2.062-0.47l1.26-0.354v4.425l-0.756,0.184c-0.884,0.216-1.708,0.388-2.449,0.511
				C174.765,62.102,174.061,62.166,173.419,62.166z"/>
		</g>
	</g>
	<g>
		<path fill="#FFFFFF" d="M54.623,63.006c-5.117,0-9.017-1.361-11.584-4.047c-2.562-2.674-3.857-6.721-3.857-12.027V16.813h4.514
			v29.285c0,4.508,0.857,7.773,2.551,9.703c1.651,1.891,4.443,2.85,8.3,2.85c3.899,0,6.826-0.984,8.459-2.85
			c1.688-1.93,2.547-5.195,2.547-9.703V16.813h4.515v30.119c0,5.311-1.298,9.355-3.856,12.027
			C63.637,61.645,59.739,63.006,54.623,63.006z"/>
	</g>
	<g>
		<g>
			<path fill="#FFFFFF" d="M81.488,79.07h-4.602l-0.605-37.201c-0.188-9.972,1.807-14.771,1.892-14.97
				c1.726-3.568,4.002-6.256,6.773-8.01c2.615-1.66,6.659-2.65,10.817-2.65c6.033,0,10.864,2.104,14.358,6.255
				c3.447,4.094,5.196,9.743,5.196,16.79c0,7.044-1.756,12.694-5.22,16.794c-3.507,4.146-8.33,6.248-14.337,6.248
				c-3.954,0-7.394-0.939-10.224-2.795c-1.771-1.158-3.305-2.684-4.571-4.549L81.488,79.07z M95.764,20.518
				c-4.894,0-9.142,1.791-11.654,4.914c-2.681,3.331-3.229,7.946-3.229,13.852c0,5.892,1.355,10.565,4.036,13.888
				c2.625,3.264,6.272,4.918,10.849,4.918c4.602,0,8.278-1.656,10.937-4.92c2.698-3.33,4.068-8.002,4.068-13.886
				c0-5.859-1.37-10.519-4.071-13.848C104.042,22.173,100.363,20.518,95.764,20.518z"/>
		</g>
	</g>
	<g>
		<path fill="#989798" d="M386.039,62.708h-4.515V33.721c0-4.508-0.855-7.773-2.548-9.703c-1.634-1.865-4.558-2.85-8.458-2.85
			c-3.854,0-6.646,0.958-8.302,2.85c-1.689,1.931-2.547,5.195-2.547,9.703v28.987h-4.516V32.887c0-5.307,1.298-9.354,3.857-12.027
			c2.569-2.686,6.469-4.047,11.584-4.047c5.112,0,9.011,1.361,11.584,4.047c2.56,2.673,3.855,6.72,3.855,12.027v29.821H386.039z"/>
	</g>
	<g>
		<polygon fill="#C93E28" points="344.204,13.954 344.204,0 358.453,0 344.218,13.954 		"/>
		<g>
			<path fill="#989798" d="M348.72,63.006h-4.516V16.98h4.516V63.006z"/>
		</g>
	</g>
	<g>
		<g>
			<path fill="#989798" d="M313.236,63.006c-3.961,0-7.219-1.18-9.685-3.508c-2.485-2.34-3.745-5.441-3.745-9.215
				c0-3.996,1.397-7.098,4.153-9.219c2.636-2.032,7.121-3.513,13.335-4.396c1.105-0.162,2.583-0.348,4.383-0.553
				c4.815-0.551,7.361-1.689,7.361-3.295V28.9c0-2.524-0.822-4.393-2.521-5.713c-1.749-1.358-4.357-2.047-7.751-2.047
				c-3.922,0-7.028,0.843-9.234,2.506c-2.143,1.616-3.322,3.947-3.513,6.926l-0.06,0.928h-4.354l0.041-1.029
				c0.169-4.183,1.809-7.533,4.868-9.961c3.005-2.381,7.047-3.588,12.014-3.588c3.017,0,5.651,0.433,7.835,1.285
				c2.257,0.88,4.015,2.201,5.221,3.926c0.699,1.021,1.205,2.184,1.507,3.461c0.296,1.246,0.438,3.123,0.438,5.739v20.715
				c0,3.634,0.412,4.906,0.657,5.343c0.215,0.381,0.66,0.89,2.042,0.89c0.149,0,0.473-0.021,1.167-0.109
				c0.08-0.026,0.229-0.049,0.363-0.049h0.988V62.1l-0.899,0.08c-0.278,0.024-0.656,0.067-1.136,0.133
				c-0.575,0.073-0.954,0.106-1.229,0.106c-2.233,0-3.901-0.729-4.958-2.172c-0.662-0.902-1.096-2.104-1.316-3.649
				c-1.534,1.719-3.411,3.125-5.594,4.19C320.604,62.26,317.111,63.006,313.236,63.006z M329.039,38.838
				c-1.539,0.578-4.069,1.064-7.686,1.482c-0.834,0.105-1.492,0.184-1.968,0.237c-5.739,0.733-9.759,1.846-11.938,3.309
				c-2.04,1.369-3.032,3.328-3.032,5.984c0,2.781,0.814,4.939,2.426,6.41c1.633,1.494,4.035,2.252,7.141,2.252
				c2.13,0,4.206-0.344,6.172-1.021c1.955-0.68,3.664-1.629,5.079-2.822c1.397-1.23,2.395-2.633,2.948-4.156
				c0.571-1.568,0.858-4.012,0.858-7.254V38.838L329.039,38.838z"/>
		</g>
	</g>
	<g>
		<path fill="#FFFFFF" d="M185.343,78.604c-0.696,0-1.313-0.045-1.834-0.133c-0.537-0.092-1.029-0.234-1.463-0.422l-0.597-0.258
			v-4.375l1.25,0.338c0.548,0.148,1.058,0.266,1.53,0.355c1.637,0.297,2.795,0.07,3.736-0.754c0.604-0.529,2.266-3.346,2.958-5.17
			l3.438-8.85l-15.9-43.009h4.622l13.677,36.876l13.712-36.876h4.867l-18.676,49.417c-1.607,4.195-4.093,8.854-5.538,10.389
			C189.574,77.773,187.629,78.604,185.343,78.604z"/>
	</g>
	<path fill="#FFFFFF" d="M126.701,79.07H122.1l-0.604-37.201c-0.189-9.972,1.805-14.771,1.89-14.97c1.723-3.568,4-6.256,6.776-8.01
		c2.61-1.66,6.654-2.65,10.813-2.65c6.033,0,10.864,2.104,14.358,6.255c3.449,4.094,5.198,9.743,5.198,16.79
		c0,7.044-1.758,12.694-5.222,16.794c-3.507,4.146-8.33,6.248-14.337,6.248c-3.954,0-7.394-0.939-10.224-2.795
		c-1.771-1.158-3.303-2.684-4.571-4.549L126.701,79.07z M140.977,20.518c-4.894,0-9.142,1.791-11.654,4.914
		c-2.681,3.33-3.229,7.945-3.229,13.852c0,5.894,1.357,10.565,4.036,13.888c2.624,3.264,6.271,4.918,10.848,4.918
		c4.601,0,8.277-1.656,10.937-4.92c2.698-3.33,4.068-8.002,4.068-13.886c0-5.859-1.37-10.519-4.07-13.848
		C149.254,22.173,145.575,20.518,140.977,20.518z"/>
	<path fill="#989798" d="M235.494,63.006c-5.806,0-10.496-2.107-13.946-6.264c-3.407-4.1-5.135-9.68-5.135-16.583
		c0-7.142,1.775-13.033,5.139-17.039c3.45-4.113,8.22-6.2,14.178-6.2c4.609,0,8.452,1.237,11.421,3.679
		c2.984,2.455,4.808,5.902,5.414,10.242l0.158,1.127h-4.562l-0.145-0.821c-0.531-3.065-1.906-5.524-4.087-7.31
		c-2.188-1.791-4.949-2.699-8.202-2.699c-4.527,0-8.145,1.638-10.745,4.869c-2.615,3.248-4,8.142-4,14.152
		c0,5.808,1.348,10.425,4,13.722c2.603,3.23,6.217,4.869,10.745,4.869c3.396,0,6.307-1.053,8.646-3.127
		c2.342-2.074,3.75-4.865,4.188-8.291l0.11-0.865h4.412l-0.122,1.1c-0.524,4.703-2.37,8.494-5.487,11.268
		C244.356,61.602,240.326,63.006,235.494,63.006z"/>
	<path fill="#989798" d="M293.227,63.006h-4.595V33.667c0-4.535-0.853-7.805-2.527-9.72c-1.642-1.878-4.414-2.831-8.242-2.831
		c-2.247,0-4.235,0.331-5.915,0.982c-1.649,0.639-3.062,1.607-4.19,2.881c-1.133,1.279-1.946,2.792-2.417,4.498
		c-0.49,1.766-0.738,4.707-0.738,8.742v24.787h-4.592V0h4.592v22.258c1.147-1.367,2.529-2.494,4.123-3.357
		c2.562-1.395,5.608-2.102,9.062-2.102c5.112,0,9.012,1.354,11.583,4.025c2.562,2.664,3.858,6.705,3.858,12.01L293.227,63.006
		L293.227,63.006z"/>
</g>
<polygon fill="#C73927" points="204.183,16.328 196.913,35.63 189.83,16.328 "/>
</svg>
