<?xml version="1.0" encoding="utf-8"?>
<!-- Generator: Adobe Illustrator 16.0.0, SVG Export Plug-In . SVG Version: 6.00 Build 0)  -->
<!DOCTYPE svg PUBLIC "-//W3C//DTD SVG 1.1//EN" "http://www.w3.org/Graphics/SVG/1.1/DTD/svg11.dtd">
<svg version="1.1" id="Layer_1" xmlns="http://www.w3.org/2000/svg" xmlns:xlink="http://www.w3.org/1999/xlink" x="0px" y="0px"
	 width="45.84px" height="38.667px" viewBox="0 0 45.84 38.667" enable-background="new 0 0 45.84 38.667" xml:space="preserve">
<g>
	<g>
		<g>
			<path fill="#C93500" d="M42.19,31.05v-8.03c0-5.35-2.14-10.169-5.67-13.6l0,0c-3.43-3.53-8.25-5.68-13.6-5.68l0,0
				c-5.35,0-10.17,2.14-13.6,5.68l0,0c-3.53,3.43-5.68,8.25-5.68,13.6l0,0v8.03l0,0H0v-8.03C0,10.38,10.28,0.1,22.92,0.1l0,0
				c12.64,0,22.92,10.28,22.92,22.919l0,0v8.03H42.19L42.19,31.05z"/>
		</g>
		<g>
			<g>
				<path fill="#C93500" d="M14.59,36.83c0,0.75-0.64,1.29-1.28,1.29H8.59c-0.75,0-1.28-0.64-1.28-1.29V22.27
					c0-0.75,0.64-1.29,1.28-1.29h4.71c0.75,0,1.28,0.64,1.28,1.29v14.56H14.59z"/>
			</g>
			<g>
				<path fill="#C93500" d="M38.52,36.83c0,0.75-0.64,1.29-1.29,1.29h-4.71c-0.75,0-1.28-0.64-1.28-1.29V22.27
					c0-0.75,0.64-1.29,1.28-1.29h4.71c0.75,0,1.29,0.64,1.29,1.29V36.83z"/>
			</g>
		</g>
	</g>
</g>
</svg>
