<?xml version="1.0" encoding="utf-8"?>
<!-- Generator: Adobe Illustrator 16.0.0, SVG Export Plug-In . SVG Version: 6.00 Build 0)  -->
<!DOCTYPE svg PUBLIC "-//W3C//DTD SVG 1.1//EN" "http://www.w3.org/Graphics/SVG/1.1/DTD/svg11.dtd">
<svg version="1.1" id="Layer_1" xmlns="http://www.w3.org/2000/svg" xmlns:xlink="http://www.w3.org/1999/xlink" x="0px" y="0px"
	 width="180.167px" height="45px" viewBox="0 0 180.167 45" enable-background="new 0 0 180.167 45" xml:space="preserve">
<g id="Layer_1_1_">
	<g>
		<g>
			<path fill="#C93500" d="M42.19,31.05v-8.03c0-5.35-2.14-10.168-5.67-13.6l0,0c-3.43-3.53-8.25-5.68-13.6-5.68l0,0
				c-5.35,0-10.17,2.14-13.6,5.68l0,0c-3.53,3.43-5.68,8.25-5.68,13.6l0,0v8.03l0,0H0v-8.03C0,10.38,10.28,0.1,22.92,0.1l0,0
				c12.64,0,22.92,10.28,22.92,22.919l0,0v8.029L42.19,31.05L42.19,31.05z"/>
		</g>
		<g>
			<g>
				<path fill="#C93500" d="M14.59,36.83c0,0.75-0.64,1.29-1.28,1.29H8.59c-0.75,0-1.28-0.64-1.28-1.29V22.27
					c0-0.75,0.64-1.29,1.28-1.29h4.71c0.75,0,1.28,0.64,1.28,1.29v14.56H14.59z"/>
			</g>
			<g>
				<path fill="#C93500" d="M38.52,36.83c0,0.75-0.64,1.29-1.29,1.29h-4.71c-0.75,0-1.28-0.64-1.28-1.29V22.27
					c0-0.75,0.64-1.29,1.28-1.29h4.71c0.75,0,1.29,0.64,1.29,1.29V36.83z"/>
			</g>
		</g>
	</g>
	<path fill="#676767" d="M112.299,30.857c0-2.388,0.385-4.272,1.533-5.647c1.148-1.377,2.691-2.063,4.695-2.063
		s3.547,0.688,4.705,2.063c1.16,1.375,1.554,3.261,1.554,5.647c0,2.377-0.384,4.263-1.554,5.64
		c-1.158,1.385-2.711,2.071-4.705,2.071s-3.547-0.688-4.695-2.063C112.684,35.131,112.299,33.254,112.299,30.857z M113.212,30.857
		c0,2.142,0.306,3.832,1.298,5.061c0.991,1.229,2.309,1.846,4.028,1.846c1.719,0,3.034-0.617,4.048-1.846
		c1.001-1.229,1.316-2.919,1.316-5.061c0-2.15-0.307-3.842-1.316-5.078c-1.003-1.229-2.329-1.848-4.048-1.848
		c-1.72,0-3.037,0.618-4.028,1.848C113.518,27.007,113.212,28.707,113.212,30.857z"/>
	<g>
		<path fill="#979797" d="M135.684,36.436c0,0.733-0.166,1.291-0.498,1.664c-0.332,0.371-0.643,0.559-1.309,0.559
			s-1.018-0.188-1.35-0.549c-0.323-0.373-0.489-0.92-0.489-1.674V20.042c0-0.753,0.166-1.312,0.489-1.684
			c0.322-0.372,0.684-0.548,1.35-0.548c0.676,0,0.977,0.186,1.309,0.558s0.498,0.929,0.498,1.673v5.021
			c0.56-0.687,1.414-1.195,2.157-1.537c0.743-0.344,1.575-0.52,2.496-0.52c0.88,0,1.683,0.156,2.406,0.459
			c0.726,0.305,1.292,0.734,1.713,1.292c0.295,0.384,0.51,0.822,0.637,1.321c0.128,0.488,0.196,1.264,0.196,2.33v0.273v7.75
			c0,0.744-0.168,1.303-0.49,1.676c-0.322,0.371-0.822,0.548-1.486,0.548c-0.676,0-1.174-0.188-1.508-0.56
			c-0.332-0.371-0.5-0.93-0.5-1.664v-5.871c0-1.83-0.166-2.984-0.509-3.475s-0.948-0.734-1.839-0.734
			c-0.95,0-1.895,0.284-2.451,0.853c-0.548,0.567-0.832,1.331-0.832,2.31v6.92h0.01V36.436z"/>
		<path fill="#979797" d="M158.117,25.386c0-0.754,0.167-1.321,0.499-1.692c0.334-0.373,0.634-0.567,1.299-0.567
			s0.965,0.187,1.308,0.567c0.344,0.381,0.51,0.938,0.51,1.692v11.05c0,0.754-0.166,1.312-0.5,1.674
			c-0.332,0.361-0.633,0.549-1.316,0.549c-0.577,0-0.818-0.147-1.122-0.44c-0.304-0.294-0.47-0.763-0.521-1.391l-0.058-0.509
			c-0.489,0.822-1.315,1.438-2.1,1.858c-0.771,0.423-1.673,0.638-2.681,0.638c-1.646,0-2.68-0.432-3.511-1.303
			c-0.821-0.861-1.233-2.152-1.233-3.875v-8.251c0-0.754,0.168-1.321,0.5-1.692c0.332-0.373,0.633-0.567,1.297-0.567
			c0.666,0,1.166,0.187,1.509,0.567c0.343,0.382,0.509,0.938,0.509,1.692v7.097c0,1.066,0.176,1.83,0.539,2.279
			c0.361,0.459,0.948,0.686,1.78,0.686c0.948,0,1.692-0.283,2.251-0.842c0.549-0.559,1.029-1.321,1.029-2.289v-6.931H158.117z"/>
		<path fill="#979797" d="M168.842,36.816c0,0.578-0.167,1.027-0.488,1.352c-0.324,0.322-0.584,0.479-1.162,0.479
			c-0.664,0-0.955-0.186-1.289-0.547c-0.322-0.373-0.488-0.92-0.488-1.675V20.042c0-0.744,0.166-1.302,0.488-1.673
			c0.324-0.373,0.613-0.558,1.261-0.558c0.655,0,0.944,0.186,1.269,0.558c0.323,0.372,0.489,0.929,0.489,1.673v5.226
			c0.499-0.791,1.313-1.379,2.06-1.779c0.742-0.393,1.604-0.598,2.563-0.598c1.812,0,3.288,0.744,4.442,2.241
			c1.154,1.498,1.723,3.438,1.723,5.833c0,2.368-0.577,4.288-1.723,5.756s-2.651,2.191-4.502,2.191
			c-0.969,0-1.801-0.205-2.516-0.606c-0.715-0.402-1.56-1.048-2.138-1.928v0.439H168.842z M172.773,26.374
			c-1.076,0-1.907,0.392-2.484,1.185c-0.578,0.793-0.871,1.928-0.871,3.405c0,1.459,0.284,2.575,0.852,3.349
			c0.567,0.764,1.391,1.153,2.467,1.153c1.057,0,1.869-0.399,2.438-1.202c0.567-0.803,0.852-1.959,0.852-3.455
			c0-1.382-0.293-2.467-0.871-3.25C174.586,26.766,173.792,26.374,172.773,26.374z"/>
	</g>
	<g>
		<path fill="#676767" d="M55.872,34.168c0.173,1.186,0.67,1.792,1.479,2.473c0.81,0.68,1.88,1.01,3.21,1.01s2.3-0.409,3.11-1.029
			c0.8-0.62,1.21-1.34,1.21-2.37c0-0.729-0.23-1.33-0.71-1.78c-0.47-0.46-1.12-0.818-2.15-1.109c-0.18-0.049-0.44-0.119-0.79-0.209
			c-3.138-0.733-4.01-1.221-4.74-1.791c-0.39-0.299-0.68-0.67-0.9-1.119c-0.22-0.45-0.32-0.94-0.32-1.471
			c0-1.17,0.47-2.109,1.42-2.851c0.95-0.729,2.19-1.1,3.72-1.1c1.43,0,2.59,0.38,3.5,1.15c0.828,0.688,1.062,1.202,1.296,2.077
			l-0.736,0.276c-0.42-1.012-0.686-1.37-1.24-1.805c-0.73-0.6-1.71-0.898-2.95-0.898c-1.19,0-2.17,0.279-2.92,0.85
			c-0.76,0.57-0.93,1.29-0.93,2.182c0,1.479,1.328,2.85,4.379,3.41c0.13,0.039,0.23,0.068,0.3,0.08c1.87,0.479,3.14,1.02,3.81,1.618
			s1.01,1.44,1.01,2.511c0,1.221-0.5,2.229-1.51,3.041c-1.01,0.799-2.28,1.209-3.83,1.209c-1.66,0-3.047-0.379-4-1.279
			c-0.768-0.727-1.48-1.542-1.63-3.072h0.912V34.168z"/>
		<circle fill="#676767" cx="64.827" cy="26.135" r="0.395"/>
		<circle fill="#676767" cx="55.415" cy="34.212" r="0.45"/>
	</g>
	<g>
		<g>
			<path fill="#676767" d="M82.463,38.537c-1.73,0-3.021-0.443-3.872-1.332c-0.851-0.891-1.276-2.236-1.276-4.041v-9.62h0.903v9.323
				c0,1.701,0.331,2.932,0.995,3.688c0.663,0.758,1.736,1.137,3.222,1.137"/>
			<path fill="#676767" d="M82.334,37.691c1.487,0,2.616-0.379,3.28-1.137c0.663-0.757,0.995-1.986,0.995-3.688v-9.294h0.903v9.591
				c0,1.805-0.426,3.15-1.277,4.041c-0.85,0.889-2.142,1.332-3.872,1.332"/>
		</g>
		<circle fill="#676767" cx="77.765" cy="23.554" r="0.45"/>
		<circle fill="#676767" cx="87.058" cy="23.554" r="0.45"/>
	</g>
	<g>
		<path fill="#676767" d="M103.25,35.048c-0.57,1.181-1.314,2.06-2.229,2.64c-0.914,0.582-2.251,0.871-3.542,0.871
			c-2.01,0-3.552-0.686-4.71-2.06c-1.157-1.372-1.733-3.254-1.733-5.64c0-2.387,0.58-4.267,1.741-5.64
			c1.161-1.372,2.701-2.059,4.702-2.059c1.317,0,2.399,0.306,3.329,0.918c0.934,0.612,1.652,1.522,2.159,2.729l-0.137-8.619h0.901
			l0.146,11.771C103.947,33.414,103.25,35.048,103.25,35.048z M101.482,25.794c-0.982-1.229-2.292-1.846-4.001-1.846
			c-1.723,0-3.046,0.616-4.047,1.846c-0.998,1.229-1.499,2.919-1.499,5.065c0,2.139,0.501,3.822,1.499,5.054
			c1.001,1.229,2.324,1.844,4.047,1.844c1.71,0,3.296-0.614,4.285-1.844c0.99-1.229,1.203-2.915,1.203-5.054
			C102.969,28.713,102.475,27.023,101.482,25.794z"/>
		<circle fill="#676767" cx="103.283" cy="18.214" r="0.45"/>
	</g>
	<g>
		<path fill="#676767" d="M107.891,20.237v-2.42h1.537L107.891,20.237L107.891,20.237z M107.891,38.118V23.518h0.909l-0.01,14.601
			H107.891z"/>
		<circle fill="#676767" cx="108.348" cy="23.533" r="0.45"/>
		<circle fill="#676767" cx="108.342" cy="38.094" r="0.45"/>
	</g>
	<g>
		<path fill="#676767" d="M71.09,34.79c0,1.17,0.1,1.93,0.29,2.29c0.19,0.359,0.54,0.54,1.04,0.54c0.2,0,0.4-0.021,0.62-0.05
			c0.22-0.03,0.47-0.09,0.78-0.18l0.226,0.76c-0.34,0.1-0.816,0.199-1.076,0.25c-0.25,0.039-0.48,0.06-0.69,0.06
			c-0.75,0-1.29-0.21-1.61-0.63c-0.32-0.42-0.49-1.12-0.49-2.09V24.047h-2.29V23.13h2.29v-4.895h0.92v4.895h2.319v0.917H71.1V34.79
			H71.09z"/>
		<circle fill="#676767" cx="70.636" cy="18.232" r="0.46"/>
		<circle fill="#676767" cx="67.914" cy="23.589" r="0.46"/>
		<circle fill="#676767" cx="73.384" cy="23.589" r="0.46"/>
		<circle fill="#676767" cx="73.919" cy="37.773" r="0.39"/>
	</g>
</g>
<g id="Layer_2">
</g>
</svg>
