<?xml version="1.0" encoding="utf-8"?>
<!-- Generator: Adobe Illustrator 16.0.3, SVG Export Plug-In . SVG Version: 6.00 Build 0)  -->
<!DOCTYPE svg PUBLIC "-//W3C//DTD SVG 1.1//EN" "http://www.w3.org/Graphics/SVG/1.1/DTD/svg11.dtd">
<svg version="1.1" id="Layer_1" xmlns="http://www.w3.org/2000/svg" xmlns:xlink="http://www.w3.org/1999/xlink" x="0px" y="0px"
	 width="106.646px" height="106.43px" viewBox="0 0 106.646 106.43" enable-background="new 0 0 106.646 106.43"
	 xml:space="preserve">
<g>
	<polyline opacity="0.5" fill="#E6403B" enable-background="new    " points="34.909,53.64 34.909,70.669 17.881,70.669 	"/>
	<polyline opacity="0.5" fill="#E6403B" enable-background="new    " points="71.571,52.836 71.571,35.807 88.6,35.807 	"/>
</g>
<g>
	<rect x="17.881" y="35.76" fill="#E6403B" width="17.028" height="17.028"/>
	<rect x="17.881" y="71.521" fill="#E6403B" width="17.028" height="17.028"/>
	<g>
		<polygon fill="#E6403B" points="52.79,52.788 35.761,52.788 35.761,35.76 		"/>
		<rect x="35.761" y="53.64" fill="#E6403B" width="17.029" height="17.029"/>
		<polygon fill="#E6403B" points="35.761,88.549 35.761,71.521 52.79,71.521 		"/>
	</g>
	<polygon fill="#E6403B" points="17.029,35.76 17.029,52.788 0,52.788 	"/>
	<rect y="53.64" fill="#E6403B" width="17.029" height="17.029"/>
	<rect y="71.521" fill="#E6403B" width="17.029" height="17.028"/>
	<polygon fill="#E6403B" points="0,106.43 0,89.4 17.029,89.4 	"/>
	<polygon fill="#E6403B" points="70.72,17.028 53.69,17.028 53.69,0 	"/>
	<rect x="71.571" y="17.927" fill="#E6403B" width="17.029" height="17.028"/>
	<rect x="89.452" y="53.688" fill="#E6403B" width="17.028" height="17.028"/>
	<polygon fill="#E6403B" points="106.48,34.955 89.452,34.955 89.452,17.927 	"/>
	<rect x="89.452" y="35.807" fill="#E6403B" width="17.028" height="17.029"/>
	<rect x="53.69" y="35.791" fill="#E6403B" width="17.029" height="17.028"/>
	<rect x="53.69" y="17.896" fill="#E6403B" width="17.029" height="17.029"/>
	<rect x="53.69" y="53.688" fill="#E6403B" width="17.029" height="17.028"/>
</g>
</svg>
