<?xml version="1.0" encoding="utf-8"?>
<!-- Generator: Adobe Illustrator 16.0.3, SVG Export Plug-In . SVG Version: 6.00 Build 0)  -->
<!DOCTYPE svg PUBLIC "-//W3C//DTD SVG 1.1//EN" "http://www.w3.org/Graphics/SVG/1.1/DTD/svg11.dtd">
<svg version="1.1" id="Layer_1" xmlns="http://www.w3.org/2000/svg" xmlns:xlink="http://www.w3.org/1999/xlink" x="0px" y="0px"
	 width="71.047px" height="9.313px" viewBox="0 0 71.047 9.313" enable-background="new 0 0 71.047 9.313" xml:space="preserve">
<path fill="#FFFFFF" d="M0.58,5.797v3.369H0V0.764h2.027c0.863,0,1.523,0.2,1.98,0.601S4.693,2.35,4.693,3.119
	c0,0.781-0.255,1.423-0.765,1.925S2.705,5.797,1.787,5.797H0.58z M0.58,1.297v3.967h1.195c0.758,0,1.334-0.181,1.729-0.542
	S4.096,3.85,4.096,3.189c0-1.262-0.725-1.893-2.174-1.893H0.58z"/>
<path fill="#FFFFFF" d="M8.508,1.654c-0.117,0-0.221-0.043-0.311-0.129S8.063,1.33,8.063,1.197c0-0.129,0.046-0.233,0.138-0.313
	s0.194-0.12,0.308-0.12c0.121,0,0.228,0.039,0.319,0.117s0.138,0.184,0.138,0.316c0,0.125-0.045,0.232-0.135,0.322
	S8.633,1.654,8.508,1.654z M8.244,9.166v-6h0.539v6H8.244z"/>
<path fill="#FFFFFF" d="M14.962,6.225l1.957,2.941h-0.686l-1.582-2.531h-0.023l-0.211,0.334c-0.027,0.047-0.061,0.1-0.1,0.158
	l-1.324,2.039h-0.656l2.004-2.93l-1.969-3.07h0.633l1.336,2.15c0.172,0.277,0.275,0.449,0.311,0.516h0.023l0.299-0.492l1.395-2.174
	h0.633L14.962,6.225z"/>
<path fill="#FFFFFF" d="M20.543,6.189c0,0.824,0.19,1.469,0.571,1.934s0.903,0.697,1.567,0.697c0.672,0,1.328-0.248,1.969-0.744
	V8.65c-0.621,0.441-1.314,0.662-2.08,0.662c-0.773,0-1.398-0.277-1.875-0.832s-0.715-1.338-0.715-2.35
	c0-0.875,0.249-1.612,0.747-2.212S21.873,3.02,22.67,3.02c0.746,0,1.318,0.262,1.717,0.785s0.598,1.238,0.598,2.145v0.24H20.543z
	 M24.422,5.697c-0.023-0.691-0.189-1.229-0.498-1.611s-0.734-0.574-1.277-0.574c-0.563,0-1.028,0.188-1.397,0.565
	s-0.597,0.917-0.683,1.62H24.422z"/>
<path fill="#FFFFFF" d="M28.73,9.166V0.283h0.539v8.883H28.73z"/>
<path fill="#FFFFFF" d="M38.958,9.166V5.135h-4.811v4.031h-0.58V0.764h0.58v3.844h4.811V0.764h0.574v8.402H38.958z"/>
<path fill="#FFFFFF" d="M43.393,6.189c0,0.824,0.19,1.469,0.571,1.934s0.903,0.697,1.567,0.697c0.672,0,1.328-0.248,1.969-0.744
	V8.65c-0.621,0.441-1.314,0.662-2.08,0.662c-0.773,0-1.398-0.277-1.875-0.832s-0.715-1.338-0.715-2.35
	c0-0.875,0.249-1.612,0.747-2.212S44.723,3.02,45.52,3.02c0.746,0,1.318,0.262,1.717,0.785s0.598,1.238,0.598,2.145v0.24H43.393z
	 M47.271,5.697c-0.023-0.691-0.189-1.229-0.498-1.611s-0.734-0.574-1.277-0.574c-0.563,0-1.028,0.188-1.397,0.565
	s-0.597,0.917-0.683,1.62H47.271z"/>
<path fill="#FFFFFF" d="M55.024,9.166V7.965h-0.023c-0.191,0.41-0.47,0.737-0.835,0.981s-0.771,0.366-1.216,0.366
	c-0.57,0-1.021-0.16-1.354-0.48s-0.498-0.725-0.498-1.213c0-1.047,0.693-1.68,2.08-1.898l1.846-0.275
	c0-1.289-0.484-1.934-1.453-1.934c-0.66,0-1.303,0.266-1.928,0.797v-0.65c0.223-0.176,0.524-0.326,0.905-0.451
	s0.739-0.188,1.075-0.188c0.617,0,1.095,0.191,1.433,0.574s0.507,0.939,0.507,1.67v3.902H55.024z M53.372,6.178
	c-0.629,0.09-1.07,0.235-1.324,0.437s-0.381,0.528-0.381,0.981c0,0.355,0.118,0.648,0.354,0.879s0.565,0.346,0.987,0.346
	c0.578,0,1.059-0.214,1.441-0.642s0.574-0.979,0.574-1.655V5.938L53.372,6.178z"/>
<path fill="#FFFFFF" d="M63.604,9.166v-1.09H63.58c-0.195,0.379-0.484,0.68-0.867,0.902s-0.814,0.334-1.295,0.334
	c-0.738,0-1.341-0.27-1.808-0.809s-0.7-1.283-0.7-2.232c0-0.969,0.255-1.753,0.765-2.353s1.171-0.899,1.983-0.899
	c0.898,0,1.539,0.369,1.922,1.107h0.023V0.283h0.539v8.883H63.604z M63.604,5.516c0-0.559-0.177-1.032-0.53-1.421
	s-0.829-0.583-1.427-0.583c-0.629,0-1.148,0.241-1.559,0.724s-0.615,1.146-0.615,1.989c0,0.828,0.185,1.468,0.554,1.919
	s0.845,0.677,1.427,0.677c0.684,0,1.213-0.212,1.588-0.636s0.563-0.94,0.563-1.55V5.516z"/>
<path fill="#FFFFFF" d="M67.587,8.902v-0.65c0.203,0.176,0.449,0.314,0.738,0.416s0.539,0.152,0.75,0.152
	c0.941,0,1.412-0.385,1.412-1.154c0-0.266-0.104-0.492-0.311-0.68s-0.543-0.381-1.008-0.58c-0.574-0.25-0.978-0.509-1.21-0.776
	S67.61,5.037,67.61,4.654c0-0.488,0.187-0.883,0.56-1.184s0.833-0.451,1.38-0.451c0.516,0,0.957,0.105,1.324,0.316v0.609
	c-0.445-0.289-0.906-0.434-1.383-0.434c-0.395,0-0.713,0.103-0.955,0.308s-0.363,0.472-0.363,0.8c0,0.285,0.076,0.517,0.229,0.694
	s0.488,0.382,1.008,0.612c0.625,0.281,1.055,0.542,1.289,0.782s0.352,0.56,0.352,0.958c0,0.477-0.179,0.87-0.536,1.181
	s-0.851,0.466-1.479,0.466C68.456,9.313,67.974,9.176,67.587,8.902z"/>
</svg>
