<?xml version="1.0" encoding="utf-8"?>
<!-- Generator: Adobe Illustrator 16.0.3, SVG Export Plug-In . SVG Version: 6.00 Build 0)  -->
<!DOCTYPE svg PUBLIC "-//W3C//DTD SVG 1.1//EN" "http://www.w3.org/Graphics/SVG/1.1/DTD/svg11.dtd">
<svg version="1.1" id="Layer_1" xmlns="http://www.w3.org/2000/svg" xmlns:xlink="http://www.w3.org/1999/xlink" x="0px" y="0px"
	 width="149.625px" height="106.43px" viewBox="0 0 149.625 106.43" enable-background="new 0 0 149.625 106.43"
	 xml:space="preserve">
<g>
	<polyline opacity="0.5" fill="#70CFF0" points="34.909,53.64 34.909,70.669 17.881,70.669 	"/>
	<polyline opacity="0.5" fill="#70CFF0" points="71.571,52.836 71.571,35.807 88.6,35.807 	"/>
</g>
<g>
	<rect x="17.881" y="35.76" fill="#70CFF0" width="17.028" height="17.028"/>
	<rect x="17.881" y="71.521" fill="#70CFF0" width="17.028" height="17.028"/>
	<g>
		<polygon fill="#70CFF0" points="52.79,52.788 35.761,52.788 35.761,35.76 		"/>
		<rect x="35.761" y="53.64" fill="#70CFF0" width="17.029" height="17.029"/>
		<polygon fill="#70CFF0" points="35.761,88.549 35.761,71.521 52.79,71.521 		"/>
	</g>
	<polygon fill="#70CFF0" points="17.029,35.76 17.029,52.788 0,52.788 	"/>
	<rect y="53.64" fill="#70CFF0" width="17.029" height="17.029"/>
	<rect y="71.521" fill="#70CFF0" width="17.029" height="17.028"/>
	<polygon fill="#70CFF0" points="0,106.43 0,89.4 17.029,89.4 	"/>
	<polygon fill="#70CFF0" points="70.72,17.028 53.69,17.028 53.69,0 	"/>
	<rect x="71.571" y="17.927" fill="#70CFF0" width="17.029" height="17.028"/>
	<rect x="89.452" y="53.688" fill="#70CFF0" width="17.029" height="17.028"/>
	<polygon fill="#70CFF0" points="106.481,34.955 89.452,34.955 89.452,17.927 	"/>
	<rect x="89.452" y="35.807" fill="#70CFF0" width="17.029" height="17.029"/>
	<rect x="53.69" y="35.791" fill="#70CFF0" width="17.029" height="17.029"/>
	<rect x="53.69" y="17.896" fill="#70CFF0" width="17.029" height="17.029"/>
	<rect x="53.69" y="53.688" fill="#70CFF0" width="17.029" height="17.028"/>
</g>
<g>
	<path fill="#FFFFFF" d="M53.69,77.378c0.599-0.1,1.384-0.186,2.382-0.186c1.229,0,2.126,0.285,2.698,0.799
		c0.527,0.456,0.842,1.156,0.842,2.013c0,0.871-0.257,1.556-0.744,2.055c-0.655,0.699-1.726,1.056-2.938,1.056
		c-0.372,0-0.714-0.015-0.999-0.086v3.854H53.69V77.378z M54.932,82.016c0.271,0.071,0.614,0.101,1.027,0.101
		c1.498,0,2.412-0.729,2.412-2.056c0-1.27-0.9-1.883-2.27-1.883c-0.542,0-0.955,0.042-1.169,0.1V82.016z"/>
	<path fill="#FFFFFF" d="M65.093,77.264v9.618h-1.241v-9.618H65.093z"/>
	<path fill="#FFFFFF" d="M75.098,86.882l-1.228-2.126c-0.5-0.813-0.813-1.342-1.112-1.899h-0.029
		c-0.271,0.558-0.542,1.071-1.042,1.914l-1.155,2.111h-1.427l2.938-4.866l-2.825-4.752h1.44l1.271,2.255
		c0.357,0.628,0.627,1.113,0.885,1.628h0.042c0.27-0.572,0.513-1.016,0.87-1.628l1.313-2.255h1.426l-2.925,4.68l2.995,4.938H75.098z
		"/>
	<path fill="#FFFFFF" d="M85.53,82.373h-3.738v3.467h4.167v1.042H80.55v-9.618h5.193v1.041h-3.952v3.04h3.738V82.373z"/>
	<path fill="#FFFFFF" d="M90.142,77.264h1.24v8.576h4.108v1.042h-5.349V77.264z"/>
	<path fill="#FFFFFF" d="M100.688,77.264v4.024h4.651v-4.024h1.255v9.618h-1.255v-4.509h-4.651v4.509h-1.24v-9.618H100.688z"/>
	<path fill="#FFFFFF" d="M116.301,82.373h-3.74v3.467h4.166v1.042h-5.406v-9.618h5.193v1.041h-3.953v3.04h3.74V82.373z"/>
	<path fill="#FFFFFF" d="M122.466,83.856l-1,3.025h-1.282l3.267-9.618h1.497l3.284,9.618h-1.327l-1.028-3.025H122.466z
		 M125.62,82.886l-0.941-2.769c-0.214-0.628-0.355-1.198-0.5-1.755h-0.027c-0.145,0.57-0.302,1.156-0.486,1.741l-0.941,2.782H125.62
		z"/>
	<path fill="#FFFFFF" d="M132.214,77.392c0.756-0.113,1.655-0.199,2.64-0.199c1.783,0,3.055,0.414,3.895,1.198
		c0.857,0.785,1.356,1.898,1.356,3.454c0,1.569-0.484,2.854-1.384,3.738c-0.898,0.899-2.383,1.384-4.252,1.384
		c-0.886,0-1.628-0.042-2.255-0.113V77.392z M133.455,85.896c0.315,0.059,0.771,0.072,1.257,0.072c2.652,0,4.097-1.484,4.097-4.082
		c0.013-2.27-1.272-3.709-3.897-3.709c-0.642,0-1.126,0.056-1.456,0.127V85.896z"/>
	<path fill="#FFFFFF" d="M144.118,85.369c0.555,0.343,1.369,0.628,2.226,0.628c1.268,0,2.013-0.672,2.013-1.642
		c0-0.899-0.516-1.412-1.813-1.911c-1.569-0.558-2.54-1.37-2.54-2.726c0-1.499,1.24-2.612,3.111-2.612
		c0.983,0,1.697,0.229,2.126,0.471l-0.343,1.014c-0.314-0.171-0.955-0.456-1.827-0.456c-1.312,0-1.813,0.784-1.813,1.44
		c0,0.899,0.585,1.342,1.913,1.855c1.626,0.628,2.455,1.412,2.455,2.825c0,1.484-1.101,2.77-3.369,2.77
		c-0.926,0-1.94-0.273-2.453-0.614L144.118,85.369z"/>
</g>
</svg>
