<?xml version="1.0" encoding="utf-8"?>
<!-- Generator: Adobe Illustrator 16.0.3, SVG Export Plug-In . SVG Version: 6.00 Build 0)  -->
<!DOCTYPE svg PUBLIC "-//W3C//DTD SVG 1.1//EN" "http://www.w3.org/Graphics/SVG/1.1/DTD/svg11.dtd">
<svg version="1.1" id="Layer_1" xmlns="http://www.w3.org/2000/svg" xmlns:xlink="http://www.w3.org/1999/xlink" x="0px" y="0px"
	 width="160.188px" height="107.125px" viewBox="0 0 160.188 107.125" enable-background="new 0 0 160.188 107.125"
	 xml:space="preserve">
<polyline opacity="0.5" fill="#2F67B2" enable-background="new    " points="34.909,53.64 34.909,70.669 17.881,70.669 "/>
<polyline opacity="0.5" fill="#2F67B2" enable-background="new    " points="71.571,52.836 71.571,35.807 88.6,35.807 "/>
<g>
	<rect x="17.881" y="35.76" fill="#056AD8" width="17.028" height="17.028"/>
	<rect x="17.881" y="71.521" fill="#056AD8" width="17.028" height="17.025"/>
	<polygon fill="#056AD8" points="52.79,52.788 35.761,52.788 35.761,35.76 	"/>
	<rect x="35.761" y="53.64" fill="#056AD8" width="17.029" height="17.029"/>
	<polygon fill="#056AD8" points="35.761,88.549 35.761,71.521 52.79,71.521 	"/>
	<polygon fill="#056AD8" points="17.029,35.76 17.029,52.788 0,52.788 	"/>
	<rect x="0" y="53.64" fill="#056AD8" width="17.027" height="17.029"/>
	<rect x="0" y="71.521" fill="#056AD8" width="17.027" height="17.025"/>
	<polygon fill="#056AD8" points="0,106.43 0,89.4 17.029,89.4 	"/>
	<polygon fill="#056AD8" points="70.72,17.028 53.69,17.028 53.69,0 	"/>
	<rect x="71.571" y="17.927" fill="#056AD8" width="17.029" height="17.028"/>
	<rect x="89.452" y="53.688" fill="#056AD8" width="17.026" height="17.028"/>
	<polygon fill="#056AD8" points="106.48,34.955 89.451,34.955 89.451,17.927 	"/>
	<rect x="89.451" y="35.807" fill="#056AD8" width="17.027" height="17.029"/>
	<rect x="53.69" y="35.791" fill="#056AD8" width="17.029" height="17.029"/>
	<rect x="53.69" y="17.896" fill="#056AD8" width="17.029" height="17.029"/>
	<rect x="53.69" y="53.688" fill="#056AD8" width="17.029" height="17.028"/>
</g>
<g>
	<path fill="#FFFFFF" stroke="#FFFFFF" stroke-width="0.2" stroke-miterlimit="10" d="M54.587,83.467v3.369h-0.58v-8.402h2.027
		c0.863,0,1.523,0.2,1.98,0.601S58.7,80.02,58.7,80.789c0,0.781-0.255,1.423-0.765,1.925s-1.224,0.753-2.142,0.753H54.587z
		 M54.587,78.967v3.967h1.195c0.758,0,1.334-0.181,1.729-0.542s0.592-0.872,0.592-1.532c0-1.262-0.725-1.893-2.174-1.893H54.587z"/>
	<path fill="#FFFFFF" stroke="#FFFFFF" stroke-width="0.2" stroke-miterlimit="10" d="M62.515,79.324
		c-0.117,0-0.221-0.043-0.311-0.129S62.07,79,62.07,78.867c0-0.129,0.046-0.233,0.138-0.313s0.194-0.12,0.308-0.12
		c0.121,0,0.228,0.039,0.319,0.117s0.138,0.184,0.138,0.316c0,0.125-0.045,0.232-0.135,0.322S62.64,79.324,62.515,79.324z
		 M62.251,86.836v-6h0.539v6H62.251z"/>
	<path fill="#FFFFFF" stroke="#FFFFFF" stroke-width="0.2" stroke-miterlimit="10" d="M68.969,83.895l1.957,2.941H70.24
		l-1.582-2.531h-0.023l-0.211,0.334c-0.027,0.047-0.061,0.1-0.1,0.158L67,86.836h-0.656l2.004-2.93l-1.969-3.07h0.633l1.336,2.15
		c0.172,0.277,0.275,0.449,0.311,0.516h0.023l0.299-0.492l1.395-2.174h0.633L68.969,83.895z"/>
	<path fill="#FFFFFF" stroke="#FFFFFF" stroke-width="0.2" stroke-miterlimit="10" d="M74.55,83.859c0,0.824,0.19,1.469,0.571,1.934
		s0.903,0.697,1.567,0.697c0.672,0,1.328-0.248,1.969-0.744v0.574c-0.621,0.441-1.314,0.662-2.08,0.662
		c-0.773,0-1.398-0.277-1.875-0.832s-0.715-1.338-0.715-2.35c0-0.875,0.249-1.612,0.747-2.212s1.146-0.899,1.942-0.899
		c0.746,0,1.318,0.262,1.717,0.785s0.598,1.238,0.598,2.145v0.24H74.55z M78.429,83.367c-0.023-0.691-0.189-1.229-0.498-1.611
		s-0.734-0.574-1.277-0.574c-0.563,0-1.028,0.188-1.397,0.565s-0.597,0.917-0.683,1.62H78.429z"/>
	<path fill="#FFFFFF" stroke="#FFFFFF" stroke-width="0.2" stroke-miterlimit="10" d="M82.738,86.836v-8.883h0.539v8.883H82.738z"/>
	<path fill="#FFFFFF" stroke="#FFFFFF" stroke-width="0.2" stroke-miterlimit="10" d="M92.965,86.836v-4.031h-4.811v4.031h-0.58
		v-8.402h0.58v3.844h4.811v-3.844h0.574v8.402H92.965z"/>
	<path fill="#FFFFFF" stroke="#FFFFFF" stroke-width="0.2" stroke-miterlimit="10" d="M97.4,83.859c0,0.824,0.19,1.469,0.571,1.934
		s0.903,0.697,1.567,0.697c0.672,0,1.328-0.248,1.969-0.744v0.574c-0.621,0.441-1.314,0.662-2.08,0.662
		c-0.773,0-1.398-0.277-1.875-0.832s-0.715-1.338-0.715-2.35c0-0.875,0.249-1.612,0.747-2.212s1.146-0.899,1.942-0.899
		c0.746,0,1.318,0.262,1.717,0.785s0.598,1.238,0.598,2.145v0.24H97.4z M101.279,83.367c-0.023-0.691-0.189-1.229-0.498-1.611
		s-0.734-0.574-1.277-0.574c-0.563,0-1.028,0.188-1.397,0.565s-0.597,0.917-0.683,1.62H101.279z"/>
	<path fill="#FFFFFF" stroke="#FFFFFF" stroke-width="0.2" stroke-miterlimit="10" d="M109.031,86.836v-1.201h-0.023
		c-0.191,0.41-0.47,0.737-0.835,0.981s-0.771,0.366-1.216,0.366c-0.57,0-1.021-0.16-1.354-0.48s-0.498-0.725-0.498-1.213
		c0-1.047,0.693-1.68,2.08-1.898l1.846-0.275c0-1.289-0.484-1.934-1.453-1.934c-0.66,0-1.303,0.266-1.928,0.797v-0.65
		c0.223-0.176,0.524-0.326,0.905-0.451s0.739-0.188,1.075-0.188c0.617,0,1.095,0.191,1.433,0.574s0.507,0.939,0.507,1.67v3.902
		H109.031z M107.379,83.848c-0.629,0.09-1.07,0.235-1.324,0.437s-0.381,0.528-0.381,0.981c0,0.355,0.118,0.648,0.354,0.879
		s0.565,0.346,0.987,0.346c0.578,0,1.059-0.214,1.441-0.642s0.574-0.979,0.574-1.655v-0.586L107.379,83.848z"/>
	<path fill="#FFFFFF" stroke="#FFFFFF" stroke-width="0.2" stroke-miterlimit="10" d="M117.611,86.836v-1.09h-0.023
		c-0.195,0.379-0.484,0.68-0.867,0.902s-0.814,0.334-1.295,0.334c-0.738,0-1.341-0.27-1.808-0.809s-0.7-1.283-0.7-2.232
		c0-0.969,0.255-1.753,0.765-2.353s1.171-0.899,1.983-0.899c0.898,0,1.539,0.369,1.922,1.107h0.023v-3.844h0.539v8.883H117.611z
		 M117.611,83.186c0-0.559-0.177-1.032-0.53-1.421s-0.829-0.583-1.427-0.583c-0.629,0-1.148,0.241-1.559,0.724
		s-0.615,1.146-0.615,1.989c0,0.828,0.185,1.468,0.554,1.919s0.845,0.677,1.427,0.677c0.684,0,1.213-0.212,1.588-0.636
		s0.563-0.94,0.563-1.55V83.186z"/>
	<path fill="#FFFFFF" stroke="#FFFFFF" stroke-width="0.2" stroke-miterlimit="10" d="M121.594,86.572v-0.65
		c0.203,0.176,0.449,0.314,0.738,0.416s0.539,0.152,0.75,0.152c0.941,0,1.412-0.385,1.412-1.154c0-0.266-0.104-0.492-0.311-0.68
		s-0.543-0.381-1.008-0.58c-0.574-0.25-0.978-0.509-1.21-0.776s-0.349-0.593-0.349-0.976c0-0.488,0.187-0.883,0.56-1.184
		s0.833-0.451,1.38-0.451c0.516,0,0.957,0.105,1.324,0.316v0.609c-0.445-0.289-0.906-0.434-1.383-0.434
		c-0.395,0-0.713,0.103-0.955,0.308s-0.363,0.472-0.363,0.8c0,0.285,0.076,0.517,0.229,0.694s0.488,0.382,1.008,0.612
		c0.625,0.281,1.055,0.542,1.289,0.782s0.352,0.56,0.352,0.958c0,0.477-0.179,0.87-0.536,1.181s-0.851,0.466-1.479,0.466
		C122.463,86.982,121.981,86.846,121.594,86.572z"/>
</g>
</svg>
