<?xml version="1.0" encoding="utf-8"?>
<!-- Generator: Adobe Illustrator 16.0.0, SVG Export Plug-In . SVG Version: 6.00 Build 0)  -->
<!DOCTYPE svg PUBLIC "-//W3C//DTD SVG 1.1//EN" "http://www.w3.org/Graphics/SVG/1.1/DTD/svg11.dtd">
<svg version="1.1" xmlns="http://www.w3.org/2000/svg" xmlns:xlink="http://www.w3.org/1999/xlink" x="0px" y="0px" width="84px"
	 height="84px" viewBox="0 0 84 84" enable-background="new 0 0 84 84" xml:space="preserve">
<g id="Layer_2" display="none">
	<path display="inline" fill="#FFFFFF" d="M68.584,28.972c0,14.543-20.834,52.5-26.334,52.5c-5.25,0-26.334-37.956-26.334-52.5
		c0-14.544,11.79-26.334,26.334-26.334S68.584,14.428,68.584,28.972z M42.25,17.906c-5.154,0-9.333,4.179-9.333,9.333
		s4.179,9.333,9.333,9.333s9.333-4.179,9.333-9.333S47.404,17.906,42.25,17.906z"/>
</g>
<g id="Layer_3">
	<path fill="#FFFFFF" d="M64.125,73.305c0,3.866-3.134,7-7,7h-29.75c-3.866,0-7-3.134-7-7v-62.5c0-3.866,3.134-7,7-7h29.75
		c3.866,0,7,3.134,7,7V73.305z M58.75,19.305h-33v45.25h33V19.305z M49.125,11.305c0-0.552-0.447-1-1-1h-11.75c-0.553,0-1,0.448-1,1
		l0,0c0,0.553,0.447,1,1,1h11.75C48.678,12.305,49.125,11.857,49.125,11.305L49.125,11.305z M42.25,69.555
		c-1.52,0-2.75,1.231-2.75,2.75s1.23,2.75,2.75,2.75c1.519,0,2.75-1.231,2.75-2.75S43.769,69.555,42.25,69.555z"/>
</g>
<g id="Layer_4" display="none">
	<g display="inline">
		<path fill="#FFFFFF" d="M58.154,51.739c-10.268,10.379-14.459,1.193-14.459,1.193s-3.205,4.77-9.911,2.906
			c-5.546-1.54-6.812-10.65-2.757-18.557c4.517-8.804,10.576-8.793,13.265-8.793c3.055,0,5.066,3.278,5.066,3.278l0.744-1.788h4.771
			l-6.707,20.718c0,0-1.043,7.304,8.197-0.746c0,0,6.352-4.92,4.984-14.126c-0.586-3.943-2.486-6.634-2.504-6.66
			c-3.412-5.29-8.564-7.846-15.771-7.846c-11.041,0-20.021,9.381-20.021,20.915c0,11.533,8.98,20.916,20.021,20.916
			c7.525,0,14.348-4.345,17.803-11.339l2.139,1.058c-3.859,7.812-11.5,12.665-19.941,12.665c-12.356,0-22.407-10.452-22.407-23.3
			c0-12.849,10.051-23.3,22.407-23.3c8.082,0,13.889,2.912,17.754,8.905C60.828,27.84,68.971,40.804,58.154,51.739z M45.41,30.726
			c0,0-5.664-0.971-9.614,8.867c-3.948,9.837-2.653,13.489-0.537,14.044c1.415,0.371,5.883,1.511,10.374-10.375
			C48.777,34.945,48.24,31.246,45.41,30.726z"/>
		<path fill="#FFFFFF" d="M42.252,82.329c-22.209,0-40.276-18.067-40.276-40.274c0-22.206,18.066-40.273,40.276-40.273
			c22.207,0,40.271,18.067,40.271,40.273C82.523,64.262,64.459,82.329,42.252,82.329z M42.252,5.358
			c-20.235,0-36.699,16.463-36.699,36.696c0,20.234,16.464,36.697,36.699,36.697c20.232,0,36.695-16.463,36.695-36.697
			C78.947,21.821,62.484,5.358,42.252,5.358z"/>
	</g>
</g>
</svg>
