<?xml version="1.0" encoding="utf-8"?>
<!-- Generator: Adobe Illustrator 16.0.0, SVG Export Plug-In . SVG Version: 6.00 Build 0)  -->
<!DOCTYPE svg PUBLIC "-//W3C//DTD SVG 1.1//EN" "http://www.w3.org/Graphics/SVG/1.1/DTD/svg11.dtd">
<svg version="1.1" xmlns="http://www.w3.org/2000/svg" xmlns:xlink="http://www.w3.org/1999/xlink" x="0px" y="0px" width="52px"
	 height="52px" viewBox="0 0 52 52" enable-background="new 0 0 52 52" xml:space="preserve">
<g id="Layer_5" display="none">
	<path display="inline" fill="#FF0049" d="M51,26c0,13.808-11.193,25-24.998,25C12.191,51,1,39.808,1,26C1,12.193,12.191,1,26.002,1
		C39.807,1,51,12.193,51,26z M15.275,10.02c-1.895,0-3.432,1.536-3.432,3.431c0,1.895,1.537,3.431,3.432,3.431
		s3.432-1.536,3.432-3.431C18.707,11.556,17.17,10.02,15.275,10.02z M18.707,19.788h-6.863v19.68h6.863V19.788z M29.262,25.836
		c0.811-1.059,2.33-1.168,2.578-1.168c0.246,0,1.582-0.062,2.482,0.84c1.141,1.141,1.166,3.33,1.166,4.119c0,0.791,0,9.841,0,9.841
		h5.873c0,0,0-6.88,0-12.063s-2.434-7.616-7.301-7.616c-4.865,0-5.977,2.952-5.977,2.952v-2.952h-5.385v19.68h5.68V29.309
		C28.379,28.41,28.451,26.893,29.262,25.836z"/>
</g>
<g id="Layer_2" display="none">
	<g display="inline">
		<title></title>
		<g id="svg_1_1_" transform="translate(0,1024) scale(0.10000000149011612,-0.10000000149011612) ">
			<path id="svg_2_1_" fill="#FF0049" d="M244.961,10229.54c-32.227-1.895-64.277-10.254-93.281-24.209
				c-70.381-33.892-121.172-99.092-136.68-175.469c-10.898-53.555-3.867-109.531,19.834-158.525
				c33.955-70.273,99.033-120.898,175.303-136.348c53.555-10.879,109.541-3.848,158.535,19.844
				c50.615,24.434,92.07,65.879,116.514,116.504c11.641,24.092,19.307,49.854,22.715,76.318
				c6.279,48.418-1.621,97.422-22.715,141.006c-24.443,50.61-65.898,92.056-116.514,116.494
				C330.342,10223.72,287.559,10232.138,244.961,10229.54z M346.943,10093.446l-0.176-27.266l-26.514-0.293
				c-29.98-0.342-28.135,0-31.367-5.068c-3.281-5.254-3.516-7.041-3.516-28.486v-19.478h30.84h30.85v-25.649v-25.664h-30.85h-30.84
				v-76.65v-76.68h-29.688h-29.688v76.68v76.65h-26.523h-26.514v25.664v25.649h26.514h26.523v18.501
				c0,20.117,0.576,26.348,3.223,35.508c7.266,25.02,26.641,45.142,49.404,51.187c8.311,2.256,11.885,2.422,41.221,2.539
				l27.217,0.059L346.943,10093.446z"/>
		</g>
	</g>
</g>
<g id="Layer_3">
	<path fill="#FF0049" d="M47.647,13.455c-2.235-3.831-5.268-6.866-9.098-9.102C34.717,2.117,30.535,1,26,1
		s-8.719,1.117-12.549,3.353s-6.863,5.271-9.098,9.102C2.117,17.285,1,21.469,1,26.005c0,5.449,1.59,10.348,4.77,14.703
		c3.178,4.351,7.285,7.361,12.32,9.034c0.586,0.107,1.02,0.029,1.301-0.229c0.283-0.259,0.424-0.584,0.424-0.977
		c0-0.063-0.006-0.649-0.016-1.757c-0.012-1.107-0.018-2.073-0.018-2.897l-0.748,0.128c-0.479,0.087-1.08,0.126-1.807,0.116
		s-1.482-0.086-2.262-0.229c-0.783-0.141-1.51-0.468-2.182-0.976c-0.672-0.51-1.15-1.179-1.432-2.003l-0.326-0.75
		c-0.217-0.5-0.559-1.053-1.025-1.659c-0.467-0.609-0.938-1.021-1.416-1.237l-0.229-0.163c-0.15-0.111-0.291-0.238-0.422-0.39
		c-0.131-0.153-0.229-0.305-0.294-0.457c-0.063-0.153-0.011-0.276,0.163-0.377c0.174-0.097,0.488-0.144,0.945-0.144l0.65,0.097
		c0.434,0.086,0.971,0.346,1.611,0.777c0.639,0.438,1.166,1.001,1.578,1.696c0.5,0.889,1.102,1.569,1.807,2.038
		c0.705,0.466,1.416,0.697,2.133,0.697c0.715,0,1.334-0.053,1.855-0.162c0.52-0.108,1.008-0.271,1.463-0.487
		c0.195-1.456,0.729-2.573,1.596-3.355c-1.236-0.13-2.35-0.325-3.336-0.585c-0.988-0.263-2.008-0.684-3.061-1.273
		c-1.053-0.583-1.926-1.312-2.619-2.181c-0.696-0.866-1.266-2.007-1.71-3.416c-0.444-1.412-0.667-3.04-0.667-4.885
		c0-2.627,0.857-4.864,2.572-6.708c-0.803-1.975-0.729-4.188,0.227-6.642c0.631-0.195,1.562-0.049,2.801,0.439
		c1.236,0.49,2.143,0.907,2.717,1.254c0.576,0.347,1.037,0.641,1.385,0.879c2.018-0.565,4.102-0.846,6.25-0.846
		s4.23,0.281,6.25,0.846l1.236-0.782c0.846-0.521,1.846-0.999,2.994-1.433c1.15-0.434,2.031-0.553,2.639-0.357
		c0.977,2.454,1.062,4.667,0.26,6.643c1.715,1.844,2.572,4.08,2.572,6.707c0,1.847-0.225,3.479-0.667,4.899
		c-0.446,1.422-1.021,2.562-1.726,3.419s-1.584,1.58-2.636,2.165c-1.054,0.588-2.073,1.009-3.062,1.271
		c-0.988,0.26-2.1,0.455-3.336,0.585c1.127,0.977,1.691,2.519,1.691,4.624v6.869c0,0.393,0.137,0.716,0.408,0.977
		c0.271,0.259,0.699,0.337,1.285,0.228c5.035-1.671,9.143-4.684,12.32-9.034C49.41,36.353,51,31.454,51,26.005
		C50.998,21.469,49.881,17.285,47.647,13.455z"/>
</g>
</svg>
