<?xml version="1.0" encoding="utf-8"?>
<!-- Generator: Adobe Illustrator 16.0.0, SVG Export Plug-In . SVG Version: 6.00 Build 0)  -->
<!DOCTYPE svg PUBLIC "-//W3C//DTD SVG 1.1//EN" "http://www.w3.org/Graphics/SVG/1.1/DTD/svg11.dtd">
<svg version="1.1" id="Layer_1" xmlns="http://www.w3.org/2000/svg" xmlns:xlink="http://www.w3.org/1999/xlink" x="0px" y="0px"
	 width="87.709px" height="54.75px" viewBox="0 0 87.709 54.75" enable-background="new 0 0 87.709 54.75" xml:space="preserve">
<path fill="#252525" d="M50.179,6.636c-2.964,5.852-8.969,24.549-8.969,38.61c0,2.279,0.305,5.396,1.9,5.928
	c0.456,0.152,1.064,0.381,1.064,0.988c0,0.76-1.368,1.445-3.192,1.445c-2.965,0-6.917-1.824-6.917-8.057
	c0-4.181,1.141-12.086,1.673-13.682c-1.064,0.152-2.053,0.229-3.116,0.229c-1.9,0-3.877-0.229-5.625-0.456
	c-1.443,4.483-6.004,19.077-12.769,19.077c-0.912,0-3.496-0.684-3.496-2.584c0-0.609,0.456-0.912,0.836-0.988
	c1.748-0.457,1.977-5.32,1.977-6.613c0-3.039-1.368-5.623-1.368-10.336c0-2.66,1.064-4.104,3.876-4.104
	c1.672,0,3.345,0.304,5.017,0.456l0.228-0.912c1.521-5.168,2.965-9.957,2.965-15.961c0-2.052-0.381-4.028-1.748-4.028
	c-3.041,0-6.917,5.396-11.401,12.237c-1.292,2.052-2.584,4.256-3.116,6.612c-0.151,1.216-0.304,0.988-0.304,1.216
	c0,0.912,0.38,0.76,0.38,1.52c0,0.076-0.228,0.532-0.607,0.532c-0.076,0-0.152-0.152-0.229-0.152c-0.152,0-0.152,0.152-0.152,0.152
	c0.076,0.153-6.004-1.596-6.004-5.396c0-4.408,5.624-9.729,9.652-12.997c2.964-2.432,8.36-6.156,12.921-6.156
	c5.092,0,6.765,4.484,6.765,10.033c0,4.484-1.064,9.729-2.204,14.061c0.76,0.076,1.52,0.076,2.279,0.076
	c2.205,0,4.409-0.228,6.385-0.836c1.977-7.296,4.028-14.669,6.612-21.813l0.608-1.672c0-0.456,1.063-0.988,1.14-0.912
	c0.076,0,0.304-0.076,0.304-0.152c0.305,0.456,0.912,0.304,1.217,0.684c0,0.076,0.228,0.304,0.304,0.304
	c1.292,0.228,0.38,2.28,1.064,2.964c0,0,0-0.076,0-0.304c0.075-0.38,0.304-1.216,0.304-2.128C49.419,4.28,49.95,5.724,50.179,6.636z
	 M2.752,22.597c0-1.596,0.685-3.572,1.977-5.929c-1.672,2.28-2.509,4.104-2.509,5.548c0,0.912,0.305,1.672,0.912,2.204
	C2.904,23.889,2.752,23.281,2.752,22.597z M16.585,39.697c1.292-2.888,2.356-6.004,3.344-9.119c-0.684-0.152-1.52-0.305-2.279-0.305
	c-1.521,0-2.129,0.531-2.129,1.824c0,0.531,0.152,1.14,0.229,1.52C16.205,35.822,16.585,37.722,16.585,39.697z M16.356,43.878
	c2.204-3.647,4.028-8.056,5.32-13.073h-0.38C19.929,35.289,18.333,39.622,16.356,43.878z M23.045,30.805
	c-0.075,0-0.304,0.609-0.531,1.597c-0.837,3.345-2.053,7.068-4.104,9.805c0,0,0.304-0.38,0.836-1.063
	c0.456-0.457,1.748-2.053,3.344-8.057C23.045,31.717,23.045,31.262,23.045,30.805z M25.098,11.348
	c-0.532,5.017-1.444,10.185-2.736,15.581h0.304C24.186,21.153,24.945,15.909,25.098,11.348z M45.391,15.681
	c-3.269,9.577-5.017,17.784-5.244,24.701C40.982,32.554,42.73,24.345,45.391,15.681z"/>
<path fill="#252525" d="M61.12,29.741c0.228,0,0.38,0.152,0.38,0.38c0,1.293-7.828,16.568-12.465,16.568
	c-3.42,0-4.788-3.039-4.788-6.231c0-5.093,2.812-12.389,6.004-19.533c0.152-0.38,0.685-0.608,1.293-0.608
	c1.748,0,4.408,1.444,4.408,3.572c0,0.456-0.076,0.912-0.381,1.444c-3.572,6.46-6.156,13.301-6.156,17.785
	c3.877-2.356,6.612-9.196,9.272-11.78C59.676,30.502,60.588,29.741,61.12,29.741z M52.76,28.905c-1.141,0-4.104,8.741-4.181,11.477
	c0,0.532,0,0.761,0.076,0.761s0.152-0.457,0.229-0.988C49.111,37.873,52.607,28.754,52.76,28.905z M56.407,18.949
	c-1.063,0-3.191-1.292-3.191-2.508c0-1.292,2.128-7.296,3.572-7.296c1.368,0,4.712,2.052,4.712,3.116c0,0.076,0,0.152-0.076,0.228
	c-1.596,1.824-2.508,3.344-4.408,6.232C56.863,18.873,56.712,18.949,56.407,18.949z M54.355,15.376c0.456,0,0.685-1.14,0.685-1.064
	c0.304,0,1.748-3.268,1.748-3.648c-0.381,0-2.356,3.952-2.356,4.332C54.432,15.073,54.355,15.225,54.355,15.376z"/>
<path fill="#E6233E" d="M67.605,41.219c0,3.42-2.584,6.308-4.408,6.308c-1.292,0-2.812-0.836-2.812-2.355
	c0-3.269,2.508-6.081,4.637-6.081c0.911,0,1.823,0.381,2.355,1.217C67.529,40.534,67.605,40.838,67.605,41.219z M64.869,39.547
	c-1.597,0.151-2.889,1.596-3.42,3.191C62.133,41.75,63.577,40.23,64.869,39.547z"/>
<path fill="#E6233E" d="M76.801,41.219c0,3.42-2.584,6.308-4.408,6.308c-1.292,0-2.812-0.836-2.812-2.355
	c0-3.269,2.508-6.081,4.637-6.081c0.911,0,1.823,0.381,2.355,1.217C76.725,40.534,76.801,40.838,76.801,41.219z M74.064,39.547
	c-1.597,0.151-2.889,1.596-3.42,3.191C71.328,41.75,72.772,40.23,74.064,39.547z"/>
<path fill="#E6233E" d="M85.996,41.219c0,3.42-2.584,6.308-4.408,6.308c-1.292,0-2.812-0.836-2.812-2.355
	c0-3.269,2.508-6.081,4.637-6.081c0.911,0,1.823,0.381,2.355,1.217C85.92,40.534,85.996,40.838,85.996,41.219z M83.26,39.547
	c-1.597,0.151-2.889,1.596-3.42,3.191C80.523,41.75,81.968,40.23,83.26,39.547z"/>
</svg>
