<?xml version="1.0" encoding="utf-8"?>
<!-- Generator: Adobe Illustrator 16.0.0, SVG Export Plug-In . SVG Version: 6.00 Build 0)  -->
<!DOCTYPE svg PUBLIC "-//W3C//DTD SVG 1.1//EN" "http://www.w3.org/Graphics/SVG/1.1/DTD/svg11.dtd">
<svg version="1.1" id="Layer_1" xmlns="http://www.w3.org/2000/svg" xmlns:xlink="http://www.w3.org/1999/xlink" x="0px" y="0px"
	 width="311.656px" height="79px" viewBox="0 0 311.656 79" enable-background="new 0 0 311.656 79" xml:space="preserve">
<g>
	<path fill="#999999" d="M257.272,62.446c-4.15,0-8.174-0.981-10.764-2.625c-2.749-1.737-5.005-4.402-6.706-7.919
		c-0.095-0.221-2.089-5.012-1.897-15.088L238.515,0h3.671l-0.56,25.308c1.419-2.589,3.262-4.635,5.496-6.097
		c2.803-1.836,6.218-2.767,10.15-2.767c5.971,0,10.762,2.084,14.239,6.195c3.453,4.087,5.204,9.742,5.204,16.806
		c0,7.067-1.744,12.721-5.184,16.803C268.068,60.36,263.271,62.446,257.272,62.446z M257.272,19.746
		c-4.829,0-8.687,1.751-11.466,5.206c-2.808,3.485-4.231,8.361-4.231,14.492c0,6.133,0.58,10.938,3.409,14.452
		c2.662,3.308,7.141,5.204,12.288,5.204c4.853,0,8.739-1.752,11.552-5.206c2.832-3.49,4.269-8.353,4.269-14.45
		c0-6.125-1.437-11-4.27-14.491C266.012,21.499,262.126,19.746,257.272,19.746z"/>
	<path fill="#999999" d="M216.63,58.971c4.131,0,7.248-1.065,9.014-3.081c1.809-2.065,2.725-5.51,2.725-10.237V16.318h3.588v30.186
		c0,5.28-1.277,9.29-3.797,11.918c-2.521,2.636-6.373,3.973-11.449,3.973c-5.074,0-8.928-1.337-11.449-3.973
		c-2.518-2.629-3.795-6.639-3.795-11.918V16.318h3.586v29.334c0,4.728,0.916,8.172,2.725,10.237
		C209.565,57.934,212.546,58.971,216.63,58.971z"/>
	<g>
		<path fill="#FFFFFF" d="M3.687,62.432H0V40.447c0.001-0.068,0.081-6.229,0.446-9.494C1.4,22.429,7.554,18.687,7.815,18.532
			c2.223-1.486,5.014-2.248,8.274-2.248h0.5v3.544l-0.479,0.02c-4.473,0.182-7.687,1.748-9.553,4.654
			c-1.905,2.971-2.871,8.167-2.871,15.442V62.432z"/>
	</g>
	<path fill="#FFFFFF" d="M50.672,78.971c-4.976,0-9.024-1.207-12.033-3.589c-3.041-2.408-4.611-5.653-4.666-9.645l-0.007-0.507
		h3.506l0.023,0.476c0.156,3.125,1.407,5.505,3.825,7.273c2.426,1.772,5.791,2.671,10.002,2.671c3.516,0,6.515-0.605,8.916-1.799
		c2.381-1.186,4.261-2.974,5.589-5.315c0.646-1.162,1.12-3.049,1.407-4.617c0.292-1.588,0.439-4.352,0.439-8.214v-2.262
		c-1.421,2.508-3.325,4.535-5.682,6.042c-2.933,1.875-6.413,2.825-10.344,2.825c-5.963,0-10.748-2.114-14.222-6.285
		c-3.453-4.143-5.204-9.401-5.204-16.517c0-7.145,1.758-12.848,5.226-16.951c3.487-4.128,8.32-6.221,14.364-6.221
		c4.015,0,7.55,0.972,10.508,2.889c2.999,1.943,5.449,5.941,5.748,6.651c0.056,0.132,0.146,0.309,0.261,0.533
		c0.495,0.967,1.415,2.767,2.078,5.675c0.743,3.261,0.798,5.89,0.827,7.302l0.004,0.178c0.029,1.29,0.001,18.437,0,19.164
		c0,3.305-0.217,5.871-0.646,7.627c-0.432,1.773-1.161,3.424-2.167,4.905c-1.733,2.54-4.134,4.483-7.137,5.775
		C58.311,78.32,54.738,78.971,50.672,78.971z M51.812,19.657c-4.868,0-8.771,1.766-11.601,5.249
		c-2.855,3.515-4.304,8.428-4.304,14.603c0,6.146,1.448,10.596,4.304,14.111c2.83,3.483,6.732,5.249,11.601,5.249
		c4.865,0,8.76-1.766,11.576-5.248c2.844-3.514,4.285-7.964,4.285-14.112c0-6.176-1.441-11.089-4.285-14.604
		C60.572,21.423,56.678,19.657,51.812,19.657z"/>
	<polygon fill="#C93B27" points="22.615,12.552 22.615,0.048 35.385,0.048 22.629,12.552 	"/>
	<path fill="#FFFFFF" d="M26.201,62.432h-3.586V16.318h3.586V62.432z"/>
	<path fill="#FFFFFF" d="M122.699,62.446c-2.303,0-3.992-0.67-5.02-1.99c-1.01-1.304-1.5-3.367-1.5-6.309V19.646h-5.412v-3.301
		h5.412V0h3.627v16.346h7.797v3.301h-7.797v31.757c0,3.242,0.26,5.37,0.77,6.325c0.463,0.871,1.289,1.294,2.527,1.294
		c0.541,0,1.113-0.046,1.701-0.137c0.6-0.091,1.326-0.257,2.162-0.493l0.637-0.18v3.438l-0.381,0.093
		c-0.883,0.216-1.711,0.389-2.463,0.514C124.023,62.383,123.328,62.446,122.699,62.446z"/>
	<path fill="#FFFFFF" d="M110.162,62.432h-3.668V33.017c0-4.754-0.91-8.204-2.704-10.252c-1.776-2.032-4.734-3.062-8.794-3.062
		c-2.355,0-4.447,0.349-6.22,1.037c-1.761,0.68-3.266,1.715-4.475,3.077c-1.207,1.362-2.074,2.974-2.578,4.792
		c-0.511,1.849-0.771,4.896-0.771,9.056v24.769h-3.664V0h3.664v22.903c1.281-1.898,2.944-3.409,4.961-4.504
		c2.536-1.381,5.565-2.082,9.002-2.082c5.074,0,8.926,1.329,11.45,3.95c2.519,2.62,3.796,6.624,3.796,11.901V62.432z"/>
	<path fill="#999999" d="M195.457,62.432h-3.668V33.017c0-4.754-0.91-8.204-2.704-10.252c-1.776-2.032-4.734-3.062-8.794-3.062
		c-2.355,0-4.447,0.349-6.22,1.037c-1.761,0.68-3.266,1.715-4.475,3.077c-1.207,1.362-2.074,2.974-2.578,4.792
		c-0.511,1.849-0.771,4.896-0.771,9.056v24.769h-3.664V0h3.664v22.903c1.281-1.898,2.944-3.409,4.961-4.504
		c2.536-1.381,5.565-2.082,9.002-2.082c5.074,0,8.926,1.329,11.45,3.95c2.519,2.62,3.796,6.624,3.796,11.901V62.432z"/>
	<g>
		<path fill="#C83927" d="M145.52,36.929l-3.052,2.847l-6.96-6.916c-1.191-1.71-1.884-3.756-1.884-5.95
			c0-5.983,5.149-10.852,11.477-10.852c6.328,0,11.476,4.868,11.476,10.852c0,3.746-2.019,7.056-5.082,9.006l-2.731-2.859
			c2.267-1.213,3.8-3.514,3.8-6.146c0-3.892-3.347-7.057-7.462-7.057c-4.114,0-7.462,3.165-7.462,7.057
			c0,1.417,0.443,2.736,1.208,3.844L145.52,36.929z"/>
		<ellipse fill="#C83927" cx="145.101" cy="26.612" rx="3.95" ry="3.735"/>
	</g>
	<g>
		<path fill="#FFFFFF" d="M144.682,41.673l3.053-2.846l6.959,6.916c1.189,1.709,1.883,3.754,1.883,5.95
			c0,5.981-5.147,10.851-11.476,10.851c-6.327,0-11.477-4.869-11.477-10.851c0-3.746,2.021-7.058,5.083-9.007l2.732,2.859
			c-2.268,1.213-3.801,3.513-3.801,6.147c0,3.891,3.348,7.056,7.462,7.056c4.115,0,7.462-3.165,7.462-7.056
			c0-1.418-0.443-2.738-1.207-3.846L144.682,41.673z"/>
		<ellipse fill="#FFFFFF" cx="145.101" cy="51.99" rx="3.95" ry="3.736"/>
	</g>
</g>
</svg>
