<?xml version="1.0" encoding="utf-8"?>
<!-- Generator: Adobe Illustrator 16.0.0, SVG Export Plug-In . SVG Version: 6.00 Build 0)  -->
<!DOCTYPE svg PUBLIC "-//W3C//DTD SVG 1.1//EN" "http://www.w3.org/Graphics/SVG/1.1/DTD/svg11.dtd">
<svg version="1.1" id="Layer_1" xmlns="http://www.w3.org/2000/svg" xmlns:xlink="http://www.w3.org/1999/xlink" x="0px" y="0px"
	 width="373px" height="79px" viewBox="0 0 373 79" enable-background="new 0 0 373 79" xml:space="preserve">
<g>
	<path fill="#989898" d="M310.059,61.978c-1.739,0-3.399-0.049-4.65-0.091c-4.271-0.145-7.515-1.312-9.914-3.568
		c-2.532-2.382-3.819-5.395-3.823-9.25c-0.004-4.071,1.406-7.227,4.194-9.379c2.728-2.107,7.413-3.649,13.926-4.583
		c1.143-0.169,2.663-0.363,4.646-0.591c5.523-0.638,8.323-2.005,8.321-4.065l-0.005-2.359c-0.003-2.869-0.953-4.999-2.905-6.512
		c-1.955-1.516-4.833-2.285-8.555-2.285c-4.328,0.005-7.745,0.944-10.188,2.792c-2.412,1.824-3.74,4.441-3.948,7.779l-0.029,0.468
		l-3.537,0.005l0.021-0.521c0.166-4.282,1.835-7.71,4.957-10.189c3.094-2.459,7.278-3.709,12.437-3.715
		c3.159,0,5.882,0.444,8.137,1.319c2.297,0.893,4.082,2.23,5.307,3.973c0.705,1.027,1.215,2.2,1.521,3.49
		c0.307,1.289,0.457,1.847,0.459,4.583l0.003,1.878c0,0,0.023,18.759,0.023,19.602c0,2.034-0.428,3.896-1.174,5.107
		c-1.299,2.109-3.166,4.406-7.16,5.443C316.381,61.758,313.744,61.978,310.059,61.978z M306.243,58.214
		c0.514,0,1.161,0.016,1.888,0.034c0.917,0.022,1.959,0.048,3.014,0.048l0,0c2.499,0,4.223-0.153,5.268-0.468
		c2.111-0.637,2.548-0.941,3.845-1.846c2.124-1.48,2.347-3.378,2.583-5.388l0.013-0.106c0.149-1.277,0.087-2.898,0.014-4.947
		c-0.046-1.282-0.093-2.608-0.095-3.983l-0.007-5.551c-1.122,0.586-3.493,1.264-8.794,1.883c-0.889,0.112-1.586,0.196-2.088,0.253
		c-6.205,0.801-10.562,2.021-12.946,3.629c-2.337,1.574-3.471,3.81-3.467,6.833c0.004,3.123,0.936,5.405,2.77,7.078
		c1.841,1.68,4.517,2.531,7.951,2.531H306.243z"/>
	<path fill="#333333" d="M16.534,61.984c-4.861,0-8.824-1.277-11.777-3.795C1.8,55.661,0.077,52.11-0.365,47.637l-0.054-0.549h3.553
		l0.076,0.408c0.674,3.606,2.138,6.368,4.352,8.209c2.209,1.841,5.2,2.773,8.891,2.773c3.696,0,6.686-0.862,8.885-2.562
		c2.193-1.695,3.26-3.878,3.26-6.675c0-1.952-0.628-3.55-1.867-4.75c-1.277-1.238-3.379-2.264-6.248-3.047
		c-0.508-0.134-1.264-0.337-2.262-0.607c-7.101-1.81-11.602-3.518-13.752-5.222c-1.158-0.903-2.07-2.044-2.705-3.389
		c-0.637-1.338-0.959-2.83-0.959-4.436c0-3.488,1.438-6.366,4.275-8.556c2.796-2.16,6.486-3.255,10.971-3.255
		c4.195,0,7.675,1.147,10.34,3.412c2.674,2.269,4.229,5.418,4.619,9.36l0.055,0.55H27.53l-0.06-0.432
		c-0.436-3.112-1.666-5.514-3.658-7.135c-1.998-1.629-4.732-2.453-8.125-2.453c-3.294,0-6.014,0.788-8.083,2.343
		c-2.054,1.544-3.052,3.456-3.052,5.843c0,3.953,4.292,7.079,12.756,9.291l0.859,0.247c5.396,1.383,9.143,2.982,11.121,4.75
		c2.027,1.816,3.055,4.362,3.055,7.566c0,3.645-1.518,6.705-4.511,9.096C24.872,60.785,21.072,61.984,16.534,61.984z"/>
	<path fill="#333333" d="M167.688-0.395V50.97c0,3.242,0.258,5.37,0.765,6.325c0.462,0.871,1.284,1.294,2.517,1.294
		c0.538,0,1.107-0.046,1.693-0.137c0.6-0.091,1.326-0.257,2.162-0.493l0.637-0.18v3.438l-0.382,0.093
		c-0.882,0.216-1.71,0.389-2.462,0.514c-0.734,0.125-1.425,0.188-2.051,0.188c-2.292,0-3.976-0.67-5.003-1.99
		c-1.01-1.304-1.5-3.367-1.5-6.309V-0.395 M167.688,17.066 M164.064,17.066"/>
	<path fill="#333333" d="M53.5,58.603c4.132,0,7.249-1.065,9.015-3.081c1.808-2.065,2.725-5.51,2.725-10.237V15.923h3.587v30.212
		c0,5.28-1.276,9.29-3.796,11.918c-2.521,2.636-6.374,3.973-11.449,3.973s-8.928-1.337-11.45-3.973
		c-2.518-2.629-3.794-6.639-3.794-11.918V15.923h3.585v29.361c0,4.728,0.917,8.172,2.726,10.237
		C46.437,57.565,49.416,58.603,53.5,58.603z"/>
	<g>
		<path fill="#333333" d="M78.964,78.629h-3.671l-0.609-37.021c-0.191-10.076,1.803-14.867,1.888-15.066
			c1.711-3.539,3.967-6.203,6.716-7.941c2.59-1.643,6.613-2.624,10.764-2.624c5.998,0,10.796,2.086,14.26,6.199
			c3.439,4.082,5.184,9.735,5.184,16.803c0,7.065-1.751,12.719-5.204,16.806c-3.478,4.111-8.269,6.195-14.239,6.195
			c-3.933,0-7.348-0.931-10.151-2.768c-2.233-1.462-4.076-3.507-5.495-6.097L78.964,78.629z M94.051,19.323
			c-5.147,0-9.626,1.897-12.288,5.204c-2.829,3.515-3.409,8.319-3.409,14.452c0,6.131,1.424,11.007,4.231,14.493
			c2.779,3.454,6.637,5.206,11.466,5.206c4.854,0,8.739-1.752,11.552-5.208c2.832-3.49,4.269-8.366,4.269-14.491
			c0-6.098-1.437-10.96-4.27-14.451C102.79,21.074,98.904,19.323,94.051,19.323z"/>
	</g>
	<g>
		<path fill="#333333" d="M123.54,78.629h-3.67l-0.609-37.021c-0.191-10.076,1.803-14.867,1.888-15.066
			c1.71-3.538,3.966-6.203,6.715-7.941c2.59-1.643,6.613-2.624,10.764-2.624c5.998,0,10.796,2.086,14.26,6.199
			c3.439,4.082,5.184,9.735,5.184,16.803c0,7.065-1.751,12.719-5.204,16.806c-3.478,4.111-8.269,6.195-14.239,6.195
			c-3.933,0-7.348-0.931-10.151-2.768c-2.233-1.462-4.075-3.507-5.494-6.096L123.54,78.629z M138.627,19.323
			c-5.147,0-9.626,1.897-12.288,5.204c-2.829,3.514-3.408,8.319-3.408,14.452c0,6.132,1.423,11.008,4.23,14.493
			c2.779,3.454,6.637,5.206,11.466,5.206c4.854,0,8.739-1.752,11.552-5.208c2.832-3.49,4.269-8.366,4.269-14.491
			c0-6.098-1.437-10.96-4.27-14.451C147.366,21.074,143.48,19.323,138.627,19.323z"/>
	</g>
	<g>
		<path fill="#989898" d="M285.652,62.044h-3.668V32.618c0-4.754-0.91-8.204-2.704-10.252c-1.776-2.032-4.734-3.062-8.794-3.062
			c-2.355,0-4.447,0.349-6.22,1.037c-1.761,0.68-3.266,1.715-4.475,3.077c-1.207,1.362-2.074,2.974-2.578,4.792
			c-0.511,1.849-0.771,4.896-0.771,9.056v24.78h-3.664V-0.395h3.664v22.899c1.281-1.898,2.944-3.409,4.961-4.504
			c2.536-1.381,5.565-2.082,9.002-2.082c5.074,0,8.926,1.329,11.45,3.95c2.519,2.62,3.796,6.624,3.796,11.901V62.044z"/>
	</g>
	<path fill="#989898" d="M357.204,19.338c4.133,0,7.249,1.065,9.015,3.081c1.808,2.065,2.725,5.51,2.725,10.237v29.387h3.587V31.805
		c0-5.28-1.277-9.29-3.795-11.918c-2.523-2.636-6.375-3.973-11.45-3.973s-8.927,1.337-11.45,3.973
		c-2.518,2.629-3.794,6.639-3.794,11.918v30.239h3.585V32.657c0-4.728,0.917-8.172,2.725-10.237
		C350.142,20.375,353.12,19.338,357.204,19.338z"/>
	<g>
		<polygon fill="#C93A27" points="332.464,12.158 332.464,-0.346 345.234,-0.346 332.478,12.158 		"/>
		<path fill="#989898" d="M336.047,62.044h-3.586V15.923h3.586V62.044z"/>
	</g>
	<path fill="#333333" d="M179.969,78.579c-0.693,0-1.294-0.043-1.786-0.127c-0.504-0.087-0.967-0.22-1.374-0.395l-0.303-0.13v-3.466
		l0.632,0.172c0.561,0.153,1.099,0.278,1.602,0.372c1.916,0.352,3.206,0.023,4.243-0.887c0.729-0.639,2.471-3.658,3.16-5.478
		l3.576-9.196l-16.038-43.522h3.628l14.308,38.727l14.346-38.727h3.874l-18.794,49.87c-1.621,4.23-4.108,8.907-5.545,10.428
		C184.017,77.785,182.156,78.579,179.969,78.579z"/>
	<path fill="#989898" d="M229.518,62.011c-5.763,0-10.419-2.088-13.838-6.207c-3.397-4.09-5.12-9.673-5.12-16.594
		c0-7.164,1.771-13.122,5.122-17.116c3.42-4.077,8.156-6.145,14.076-6.145c4.582,0,8.393,1.224,11.328,3.637
		c2.942,2.421,4.74,5.828,5.343,10.126l0.08,0.569h-3.639l-0.071-0.415c-0.564-3.253-2.027-5.866-4.349-7.766
		c-2.328-1.904-5.252-2.87-8.692-2.87c-4.783,0-8.606,1.736-11.361,5.159c-2.744,3.407-4.194,8.57-4.194,14.819
		c0,6.046,1.411,10.864,4.194,14.32c2.756,3.423,6.578,5.158,11.361,5.158c3.594,0,6.675-1.116,9.157-3.317
		c2.484-2.202,3.979-5.155,4.44-8.778l0.056-0.437h3.481l-0.062,0.556c-0.52,4.67-2.347,8.428-5.43,11.169
		C238.319,60.621,234.32,62.011,229.518,62.011z"/>
</g>
<polygon fill="#C73927" points="198.98,15.927 191.71,35.229 184.627,15.927 "/>
</svg>
