<?xml version="1.0" encoding="utf-8"?>
<!-- Generator: Adobe Illustrator 16.0.0, SVG Export Plug-In . SVG Version: 6.00 Build 0)  -->
<!DOCTYPE svg PUBLIC "-//W3C//DTD SVG 1.1//EN" "http://www.w3.org/Graphics/SVG/1.1/DTD/svg11.dtd">
<svg version="1.1" id="Layer_1" xmlns="http://www.w3.org/2000/svg" xmlns:xlink="http://www.w3.org/1999/xlink" x="0px" y="0px"
	 width="311.656px" height="79px" viewBox="0 0 311.656 79" enable-background="new 0 0 311.656 79" xml:space="preserve">
<g>
	<g>
		<path fill="#C93B27" d="M169.489,62.165c5.627,0.004,11.285-2.158,15.576-6.453l0,0c4.297-4.295,6.461-9.953,6.457-15.582l0,0
			c0.004-5.625-2.16-11.285-6.457-15.58l0,0c-1.305-1.305-3.428-1.305-4.734,0l0,0c-1.307,1.309-1.307,3.43,0,4.738l0,0
			c3.002,3.002,4.49,6.908,4.492,10.842l0,0c-0.002,3.937-1.49,7.841-4.492,10.847l0,0c-3.004,2.998-6.908,4.488-10.842,4.488l0,0
			c-3.939,0-7.842-1.486-10.848-4.488l0,0c-2.999-3.006-4.493-6.91-4.495-10.847l0,0c0.002-3.934,1.496-7.84,4.495-10.842l0,0l0,0
			c1.309-1.309,1.309-3.43,0-4.738l0,0c-1.307-1.305-3.425-1.305-4.737,0l0,0c-4.303,4.295-6.461,9.955-6.457,15.58l0,0
			c-0.004,5.628,2.154,11.287,6.457,15.582l0,0c4.296,4.291,9.946,6.453,15.567,6.453l0,0
			C169.479,62.165,169.483,62.165,169.489,62.165L169.489,62.165z"/>
		<path fill="#C93B27" d="M172.837,40.13V19.917c0-1.85-1.498-3.35-3.348-3.35l0,0c-1.852,0-3.352,1.5-3.352,3.35l0,0V40.13
			c0,1.849,1.5,3.349,3.352,3.349l0,0C171.339,43.479,172.837,41.979,172.837,40.13L172.837,40.13z"/>
	</g>
	<g>
		<path fill="#999999" d="M292.167,62.367c-4.15,0-8.174-0.98-10.764-2.625c-2.749-1.736-5.005-4.402-6.706-7.918
			c-0.095-0.221-2.089-5.012-1.897-15.088L273.41,0h3.671l-0.559,25.225c1.419-2.586,3.261-4.63,5.494-6.092
			c2.805-1.837,6.22-2.769,10.15-2.769c5.972,0,10.762,2.085,14.239,6.197c3.453,4.085,5.204,9.739,5.204,16.805
			c0,7.067-1.744,12.72-5.184,16.802C302.963,60.281,298.165,62.367,292.167,62.367z M292.167,19.667
			c-4.829,0-8.687,1.751-11.466,5.206c-2.808,3.485-4.231,8.362-4.231,14.493c0,6.132,0.58,10.937,3.409,14.452
			c2.662,3.307,7.141,5.203,12.288,5.203c4.853,0,8.739-1.752,11.552-5.205c2.832-3.49,4.269-8.354,4.269-14.45
			c0-6.125-1.437-11.001-4.27-14.492C300.906,21.419,297.021,19.667,292.167,19.667z"/>
	</g>
	<g>
		<g>
			<path fill="#333333" d="M81.627,57.752"/>
		</g>
	</g>
	<g>
		<path fill="#FFFFFF" d="M112.35,62.416c-5.999,0-10.797-2.086-14.26-6.199c-3.441-4.08-5.186-9.734-5.186-16.802
			c0-7.064,1.75-12.719,5.203-16.806c3.48-4.111,8.271-6.196,14.242-6.196c3.932,0,7.346,0.932,10.148,2.77
			c2.242,1.467,4.09,3.523,5.512,6.127L127.637,0h3.67l0.406,36.788c0.192,10.074-1.801,14.865-1.887,15.064
			c-1.707,3.535-3.963,6.199-6.714,7.941C120.52,61.436,116.496,62.416,112.35,62.416z M112.35,19.715
			c-4.855,0-8.742,1.753-11.553,5.209c-2.833,3.489-4.27,8.364-4.27,14.49c0,6.097,1.437,10.96,4.271,14.453
			c2.811,3.453,6.697,5.203,11.552,5.203c5.145,0,9.623-1.896,12.285-5.201c2.83-3.516,3.41-8.32,3.41-14.455
			c0-6.131-1.424-11.008-4.231-14.492C121.034,21.467,117.178,19.715,112.35,19.715z"/>
		<g>
			<path fill="#FFFFFF" d="M16.954,62.366c-4.862,0-8.825-1.277-11.777-3.795c-2.957-2.527-4.681-6.078-5.123-10.553L0,47.47h3.553
				l0.077,0.408c0.674,3.607,2.137,6.369,4.352,8.209c2.209,1.842,5.199,2.773,8.89,2.773c3.696,0,6.686-0.861,8.885-2.561
				c2.194-1.695,3.261-3.879,3.261-6.676c0-1.951-0.629-3.549-1.868-4.75c-1.276-1.238-3.378-2.264-6.247-3.047
				c-0.509-0.133-1.264-0.336-2.262-0.607c-7.102-1.809-11.602-3.517-13.753-5.221c-1.158-0.903-2.069-2.044-2.705-3.388
				c-0.636-1.338-0.958-2.831-0.958-4.436c0-3.488,1.438-6.367,4.274-8.557c2.796-2.16,6.487-3.256,10.971-3.256
				c4.196,0,7.675,1.148,10.341,3.412c2.674,2.27,4.229,5.42,4.619,9.361l0.054,0.549h-3.534l-0.06-0.43
				c-0.436-3.113-1.666-5.514-3.657-7.137c-1.999-1.627-4.732-2.453-8.126-2.453c-3.294,0-6.013,0.789-8.083,2.344
				c-2.053,1.545-3.051,3.455-3.051,5.842c0,3.954,4.291,7.08,12.756,9.292l0.859,0.247c5.396,1.383,9.143,2.983,11.12,4.75
				c2.027,1.816,3.055,4.363,3.055,7.566c0,3.645-1.518,6.705-4.511,9.096C25.291,61.167,21.49,62.366,16.954,62.366z"/>
			<path fill="#FFFFFF" d="M45.357,62.416c-2.303,0-3.992-0.67-5.02-1.99c-1.01-1.303-1.5-3.367-1.5-6.309v-34.5h-5.412v-3.301
				h5.412V0h3.627v16.316h7.797v3.301h-7.797v31.756c0,3.242,0.259,5.371,0.769,6.326c0.464,0.871,1.29,1.293,2.528,1.293
				c0.541,0,1.113-0.045,1.701-0.137c0.6-0.09,1.326-0.256,2.162-0.492l0.637-0.18v3.438l-0.382,0.094
				c-0.882,0.215-1.71,0.389-2.462,0.514C46.681,62.354,45.986,62.416,45.357,62.416z"/>
			<path fill="#FFFFFF" d="M71.528,58.992c4.133,0,7.25-1.064,9.016-3.08c1.807-2.066,2.725-5.51,2.725-10.238V16.318h3.586v30.208
				c0,5.281-1.276,9.291-3.795,11.918c-2.522,2.637-6.375,3.973-11.449,3.973c-5.076,0-8.928-1.336-11.451-3.973
				c-2.518-2.629-3.793-6.639-3.793-11.918V16.318h3.584v29.356c0,4.729,0.918,8.172,2.726,10.238
				C64.466,57.955,67.444,58.992,71.528,58.992z"/>
		</g>
	</g>
	<path fill="#999999" d="M251.549,58.992c4.132,0,7.249-1.064,9.015-3.08c1.808-2.066,2.725-5.51,2.725-10.238V16.318h3.587v30.208
		c0,5.281-1.276,9.291-3.796,11.918c-2.521,2.637-6.374,3.973-11.449,3.973s-8.928-1.336-11.45-3.973
		c-2.518-2.629-3.794-6.639-3.794-11.918V16.318h3.585v29.356c0,4.729,0.917,8.172,2.726,10.238
		C244.485,57.955,247.465,58.992,251.549,58.992z"/>
	<polygon fill="#C93B27" points="137.82,12.552 137.82,0.048 150.59,0.048 137.834,12.552 	"/>
	<path fill="#FFFFFF" d="M141.406,62.432h-3.586V16.318h3.586V62.432z"/>
	<path fill="#999999" d="M230.39,62.432h-3.668v-29.32c0-4.754-0.91-8.204-2.704-10.252c-1.776-2.032-4.734-3.062-8.794-3.062
		c-2.355,0-4.447,0.349-6.22,1.037c-1.761,0.68-3.266,1.715-4.475,3.077c-1.207,1.362-2.074,2.974-2.578,4.792
		c-0.511,1.849-0.771,4.896-0.771,9.056v24.673h-3.664V0h3.664v22.999c1.281-1.898,2.944-3.409,4.961-4.504
		c2.536-1.381,5.565-2.082,9.002-2.082c5.074,0,8.926,1.329,11.45,3.95c2.519,2.62,3.796,6.624,3.796,11.901V62.432z"/>
</g>
</svg>
