<?xml version="1.0" encoding="utf-8"?>
<!-- Generator: Adobe Illustrator 16.0.3, SVG Export Plug-In . SVG Version: 6.00 Build 0)  -->
<!DOCTYPE svg PUBLIC "-//W3C//DTD SVG 1.1//EN" "http://www.w3.org/Graphics/SVG/1.1/DTD/svg11.dtd">
<svg version="1.1" id="Layer_1" xmlns="http://www.w3.org/2000/svg" xmlns:xlink="http://www.w3.org/1999/xlink" x="0px" y="0px"
	 width="276.713px" height="79px" viewBox="0 0 276.713 79" enable-background="new 0 0 276.713 79" xml:space="preserve">
<g>
	<path fill="#999999" d="M257.272,62.445c-4.15,0-8.174-0.98-10.766-2.625c-2.749-1.736-5.005-4.401-6.704-7.918
		c-0.097-0.221-2.091-5.012-1.897-15.088L238.515,0h3.671l-0.562,25.308c1.419-2.589,3.264-4.635,5.496-6.097
		c2.803-1.836,6.218-2.767,10.15-2.767c5.971,0,10.762,2.084,14.239,6.195c3.451,4.087,5.202,9.742,5.202,16.806
		c0,7.067-1.742,12.721-5.184,16.803C268.068,60.359,263.271,62.445,257.272,62.445z M257.272,19.746
		c-4.829,0-8.688,1.751-11.466,5.206c-2.81,3.485-4.231,8.361-4.231,14.492c0,6.133,0.58,10.938,3.409,14.453
		c2.662,3.309,7.141,5.203,12.288,5.203c4.853,0,8.739-1.752,11.552-5.205c2.832-3.49,4.271-8.354,4.271-14.451
		c0-6.125-1.438-11-4.271-14.491C266.012,21.499,262.126,19.746,257.272,19.746z"/>
	<path fill="#999999" d="M216.63,58.971c4.133,0,7.248-1.064,9.016-3.08c1.809-2.064,2.725-5.511,2.725-10.238V16.318h3.588v30.186
		c0,5.28-1.275,9.29-3.797,11.918c-2.521,2.637-6.373,3.973-11.449,3.973c-5.072,0-8.928-1.336-11.447-3.973
		c-2.52-2.629-3.797-6.639-3.797-11.918V16.318h3.588v29.334c0,4.728,0.916,8.172,2.725,10.236
		C209.565,57.934,212.546,58.971,216.63,58.971z"/>
	<g>
		<path fill="#333333" d="M3.687,62.432H0V40.447c0.001-0.068,0.081-6.229,0.446-9.494C1.4,22.429,7.554,18.687,7.815,18.532
			c2.223-1.486,5.014-2.248,8.272-2.248h0.5v3.544l-0.479,0.02c-4.473,0.182-7.688,1.748-9.553,4.654
			c-1.905,2.971-2.871,8.167-2.871,15.442L3.687,62.432L3.687,62.432z"/>
	</g>
	<path fill="#333333" d="M50.672,78.971c-4.976,0-9.022-1.207-12.031-3.589c-3.041-2.407-4.611-5.653-4.666-9.646l-0.009-0.506
		h3.508l0.021,0.476c0.156,3.125,1.407,5.505,3.825,7.272c2.426,1.771,5.791,2.672,10.002,2.672c3.516,0,6.515-0.605,8.916-1.799
		c2.381-1.188,4.261-2.976,5.589-5.315c0.646-1.162,1.12-3.05,1.407-4.617c0.292-1.588,0.438-4.353,0.438-8.214v-2.262
		c-1.421,2.508-3.323,4.535-5.682,6.041c-2.933,1.875-6.413,2.826-10.344,2.826c-5.963,0-10.748-2.115-14.224-6.285
		c-3.451-4.145-5.202-9.401-5.202-16.519c0-7.145,1.758-12.848,5.226-16.951c3.487-4.128,8.32-6.221,14.364-6.221
		c4.015,0,7.55,0.972,10.508,2.889c2.999,1.943,5.449,5.941,5.748,6.651c0.056,0.132,0.146,0.309,0.261,0.533
		c0.495,0.967,1.415,2.767,2.078,5.675c0.743,3.261,0.798,5.89,0.827,7.302l0.004,0.178c0.029,1.291,0.001,18.437,0,19.166
		c0,3.305-0.217,5.871-0.646,7.627c-0.432,1.771-1.159,3.424-2.167,4.904c-1.731,2.539-4.134,4.482-7.137,5.774
		C58.311,78.32,54.738,78.971,50.672,78.971z M51.812,19.657c-4.868,0-8.771,1.766-11.603,5.249
		c-2.854,3.515-4.304,8.428-4.304,14.603c0,6.146,1.448,10.597,4.304,14.111c2.83,3.483,6.732,5.249,11.603,5.249
		c4.863,0,8.76-1.766,11.576-5.248c2.844-3.514,4.283-7.965,4.283-14.112c0-6.176-1.439-11.089-4.283-14.604
		C60.572,21.423,56.678,19.657,51.812,19.657z"/>
	<polygon fill="#C93B27" points="22.615,12.552 22.615,0.048 35.385,0.048 22.629,12.552 	"/>
	<path fill="#333333" d="M26.201,62.432h-3.586V16.318h3.586V62.432z"/>
	<path fill="#333333" d="M122.699,62.445c-2.303,0-3.992-0.67-5.02-1.989c-1.012-1.304-1.5-3.367-1.5-6.31v-34.5h-5.412v-3.301
		h5.412V0h3.627v16.346h7.797v3.301h-7.797v31.757c0,3.242,0.26,5.369,0.77,6.324c0.463,0.871,1.289,1.295,2.527,1.295
		c0.541,0,1.111-0.047,1.701-0.139c0.6-0.091,1.324-0.257,2.16-0.492l0.639-0.181v3.438l-0.381,0.094
		c-0.885,0.216-1.711,0.389-2.465,0.514C124.023,62.383,123.328,62.445,122.699,62.445z"/>
	<path fill="#333333" d="M110.162,62.432h-3.668V33.017c0-4.754-0.91-8.204-2.704-10.252c-1.774-2.032-4.732-3.062-8.794-3.062
		c-2.354,0-4.447,0.349-6.22,1.037c-1.761,0.68-3.268,1.715-4.477,3.077c-1.205,1.362-2.072,2.974-2.576,4.792
		c-0.513,1.849-0.771,4.896-0.771,9.056v24.769h-3.664V0h3.664v22.903c1.281-1.898,2.944-3.409,4.961-4.504
		c2.536-1.381,5.565-2.082,9.002-2.082c5.074,0,8.926,1.329,11.45,3.95c2.519,2.62,3.796,6.624,3.796,11.901L110.162,62.432
		L110.162,62.432z"/>
	<path fill="#999999" d="M195.457,62.432h-3.668V33.017c0-4.754-0.91-8.204-2.704-10.252c-1.774-2.032-4.732-3.062-8.794-3.062
		c-2.354,0-4.445,0.349-6.22,1.037c-1.761,0.68-3.266,1.715-4.475,3.077c-1.207,1.362-2.074,2.974-2.578,4.792
		c-0.513,1.849-0.771,4.896-0.771,9.056v24.769h-3.664V0h3.664v22.903c1.281-1.898,2.944-3.409,4.961-4.504
		c2.536-1.381,5.565-2.082,9.002-2.082c5.074,0,8.928,1.329,11.45,3.95c2.521,2.62,3.796,6.624,3.796,11.901L195.457,62.432
		L195.457,62.432z"/>
	<g>
		<path fill="#C83927" d="M145.52,36.929l-3.054,2.847l-6.96-6.916c-1.189-1.71-1.884-3.756-1.884-5.95
			c0-5.983,5.149-10.852,11.479-10.852s11.476,4.868,11.476,10.852c0,3.746-2.019,7.056-5.082,9.006l-2.729-2.859
			c2.267-1.213,3.8-3.514,3.8-6.146c0-3.892-3.349-7.057-7.462-7.057c-4.114,0-7.462,3.165-7.462,7.057
			c0,1.417,0.441,2.736,1.208,3.844L145.52,36.929z"/>
		<ellipse fill="#C83927" cx="145.101" cy="26.612" rx="3.948" ry="3.735"/>
	</g>
	<g>
		<path fill="#333333" d="M144.682,41.673l3.053-2.846l6.959,6.916c1.188,1.709,1.883,3.754,1.883,5.95
			c0,5.979-5.146,10.851-11.476,10.851c-6.327,0-11.479-4.869-11.479-10.851c0-3.746,2.021-7.059,5.083-9.008l2.732,2.858
			c-2.27,1.213-3.801,3.515-3.801,6.146c0,3.893,3.348,7.058,7.462,7.058c4.113,0,7.462-3.165,7.462-7.058
			c0-1.418-0.443-2.736-1.207-3.846L144.682,41.673z"/>
		<ellipse fill="#333333" cx="145.101" cy="51.99" rx="3.948" ry="3.736"/>
	</g>
</g>
</svg>
