<?xml version="1.0" encoding="utf-8"?>
<!-- Generator: Adobe Illustrator 16.0.3, SVG Export Plug-In . SVG Version: 6.00 Build 0)  -->
<!DOCTYPE svg PUBLIC "-//W3C//DTD SVG 1.1//EN" "http://www.w3.org/Graphics/SVG/1.1/DTD/svg11.dtd">
<svg version="1.1" id="Layer_1" xmlns="http://www.w3.org/2000/svg" xmlns:xlink="http://www.w3.org/1999/xlink" x="0px" y="0px"
	 width="136.971px" height="79px" viewBox="0 0 136.971 79" enable-background="new 0 0 136.971 79" xml:space="preserve">
<g>
	<path fill="#FFFFFF" d="M64.261,23.167c-0.547-1.104-1.219-2.075-2.016-2.906c-2.521-2.636-6.375-3.973-11.449-3.973
		c-5.076,0-8.928,1.337-11.449,3.973c-2.52,2.628-3.797,6.638-3.797,11.918v30.223h3.588V33.03c0-4.728,0.916-8.172,2.725-10.237
		c1.767-2.016,4.884-3.081,9.015-3.081c4.084,0,7.063,1.037,8.854,3.081c1.81,2.065,2.726,5.51,2.726,10.237V62.4h3.567V33.03
		c0-4.728,0.916-8.172,2.726-10.237c1.766-2.016,4.883-3.081,9.014-3.081c4.084,0,7.064,1.037,8.854,3.081
		c1.809,2.065,2.725,5.51,2.725,10.237V62.4h3.586V32.179c0-5.279-1.277-9.289-3.795-11.918c-2.521-2.636-6.375-3.973-11.449-3.973
		c-5.076,0-8.928,1.337-11.449,3.973c-0.792,0.826-1.461,1.789-2.007,2.885L64.261,23.167z"/>
	<path fill="#FFFFFF" d="M15.164,58.979c4.141,0,7.258-1.064,9.022-3.08c1.81-2.065,2.726-5.51,2.726-10.237V16.288H30.5v30.224
		c0,5.28-1.277,9.291-3.797,11.918c-2.521,2.637-6.373,3.973-11.459,3.973c-5.074,0-8.929-1.336-11.449-3.973
		C1.277,55.801,0,51.791,0,46.512V16.288h3.586V45.66c0,4.729,0.916,8.172,2.725,10.236C8.1,57.941,11.08,58.979,15.164,58.979z"/>
	<path fill="#FFFFFF" d="M116.393,78.87c-4.976,0-9.023-1.207-12.033-3.589c-3.042-2.408-4.61-5.653-4.666-9.645l-0.007-0.508h3.506
		l0.024,0.477c0.155,3.125,1.407,5.504,3.825,7.272c2.426,1.772,5.791,2.671,10.001,2.671c3.515,0,6.515-0.605,8.916-1.799
		c2.38-1.186,4.261-2.975,5.588-5.314c0.646-1.162,1.12-2.549,1.408-4.117c0.291-1.588,0.438-4.353,0.438-8.215v-2.262
		c-1.421,2.508-3.326,4.535-5.682,6.042c-2.934,1.875-6.413,2.825-10.344,2.825c-5.964,0-10.748-2.113-14.223-6.285
		c-3.453-4.143-5.204-9.852-5.204-16.967c0-4.435,0.678-8.337,2.013-11.599l0.128-0.312l4.045,0.02l-0.335,0.71
		c-1.437,3.04-2.164,6.802-2.164,11.182c0,6.146,1.448,11.046,4.304,14.562c2.83,3.483,6.732,5.25,11.601,5.25
		c4.864,0,8.76-1.767,11.575-5.248c2.844-3.515,4.285-8.414,4.285-14.563c0-4.373-0.722-8.13-2.146-11.168l-0.333-0.709l3.728-0.014
		l0.132,0.301c0.569,1.306,1.013,2.668,1.354,4.166c0.744,3.262,0.798,5.89,0.827,7.302l0.004,0.179
		c0.028,1.289,0.001,18.386,0,19.114c0,3.306-0.217,5.871-0.646,7.627c-0.432,1.772-1.162,3.425-2.168,4.905
		c-1.731,2.54-4.133,4.482-7.136,5.775C124.032,78.221,120.459,78.87,116.393,78.87z"/>
	<path fill="#C83927" d="M134.411,25.072l-4.151-0.034l-0.148-0.184c-2.815-3.482-6.711-5.248-11.575-5.248
		c-4.868,0-8.771,1.766-11.601,5.249l-0.149,0.185l-4.443-0.007l0.515-0.775c0.404-0.608,0.847-1.197,1.314-1.751
		c3.488-4.128,8.321-6.221,14.364-6.221c4.014,0,7.55,0.972,10.508,2.889c2.277,1.477,4.146,4.067,4.843,5.112L134.411,25.072z"/>
</g>
</svg>
