<?xml version="1.0" encoding="utf-8"?>
<!-- Generator: Adobe Illustrator 16.0.3, SVG Export Plug-In . SVG Version: 6.00 Build 0)  -->
<!DOCTYPE svg PUBLIC "-//W3C//DTD SVG 1.1//EN" "http://www.w3.org/Graphics/SVG/1.1/DTD/svg11.dtd">
<svg version="1.1" id="Layer_1" xmlns="http://www.w3.org/2000/svg" xmlns:xlink="http://www.w3.org/1999/xlink" x="0px" y="0px"
	 width="1900px" height="507.584px" viewBox="0 0 1900 507.584" enable-background="new 0 0 1900 507.584" xml:space="preserve">
<g id="Layer_1_1_">
	<g>
		<g>
			<path fill="#C93B27" d="M976.348,169.925c10.836,0.007,21.729-4.156,29.992-12.426l0,0c8.273-8.27,12.439-19.166,12.434-30.004
				l0,0c0.008-10.831-4.158-21.729-12.434-29.999l0,0c-2.513-2.512-6.601-2.512-9.114,0l0,0c-2.519,2.521-2.519,6.604,0,9.124l0,0
				c5.78,5.78,8.646,13.301,8.649,20.875l0,0c-0.006,7.58-2.869,15.098-8.649,20.884l0,0c-5.783,5.773-13.302,8.642-20.876,8.642
				l0,0c-7.586,0-15.102-2.862-20.889-8.642l0,0c-5.772-5.787-8.65-13.304-8.654-20.884l0,0c0.005-7.575,2.882-15.095,8.654-20.875
				l0,0l0,0c2.521-2.521,2.521-6.605,0-9.124l0,0c-2.518-2.512-6.595-2.512-9.12,0l0,0c-8.285,8.271-12.439,19.168-12.433,29.999
				l0,0c-0.009,10.837,4.146,21.734,12.433,30.004l0,0c8.271,8.263,19.149,12.426,29.974,12.426l0,0
				C976.329,169.925,976.336,169.925,976.348,169.925L976.348,169.925z"/>
			<path fill="#C93B27" d="M982.795,127.496V88.577c0-3.563-2.884-6.451-6.447-6.451l0,0c-3.563,0-6.453,2.888-6.453,6.451l0,0
				v38.919c0,3.56,2.89,6.448,6.453,6.448l0,0C979.911,133.943,982.795,131.055,982.795,127.496L982.795,127.496z"/>
		</g>
		<g>
			<path fill="#999999" d="M1212.563,170.312c-7.987,0-15.736-1.888-20.727-5.054c-5.292-3.344-9.635-8.477-12.911-15.246
				c-0.184-0.425-4.021-9.649-3.653-29.052l1.178-70.734h7.066l-1.078,48.571c2.734-4.979,6.28-8.915,10.579-11.731
				c5.4-3.537,11.979-5.331,19.546-5.331c11.5,0,20.722,4.015,27.416,11.932c6.649,7.866,10.021,18.752,10.021,32.358
				c0,13.608-3.358,24.491-9.982,32.351C1233.352,166.296,1224.113,170.312,1212.563,170.312z M1212.563,88.095
				c-9.298,0-16.726,3.372-22.075,10.024c-5.407,6.71-8.146,16.1-8.146,27.906c0,11.807,1.115,21.057,6.563,27.827
				c5.126,6.367,13.749,10.019,23.658,10.019c9.346,0,16.828-3.374,22.243-10.022c5.453-6.721,8.222-16.085,8.222-27.823
				c0-11.793-2.769-21.182-8.224-27.905C1229.392,91.468,1221.911,88.095,1212.563,88.095z"/>
		</g>
		<g>
			<g>
				<path fill="#333333" d="M807.172,161.426"/>
			</g>
		</g>
		<g>
			<path fill="#FFFFFF" d="M866.328,170.407c-11.55,0-20.789-4.017-27.457-11.938c-6.627-7.854-9.985-18.743-9.985-32.351
				c0-13.602,3.37-24.491,10.02-32.36c6.7-7.916,15.925-11.93,27.424-11.93c7.57,0,14.144,1.794,19.538,5.333
				c4.314,2.824,7.875,6.783,10.613,11.797l-0.718-48.734h7.066l0.782,70.835c0.369,19.396-3.468,28.62-3.634,29.004
				c-3.286,6.807-7.631,11.937-12.93,15.291C882.059,168.519,874.313,170.407,866.328,170.407z M866.328,88.187
				c-9.348,0-16.833,3.375-22.245,10.03c-5.455,6.718-8.221,16.105-8.221,27.901c0,11.739,2.766,21.104,8.223,27.828
				c5.413,6.649,12.896,10.019,22.243,10.019c9.907,0,18.528-3.651,23.654-10.015c5.448-6.77,6.565-16.02,6.565-27.832
				c0-11.805-2.741-21.196-8.146-27.905C883.05,91.56,875.624,88.187,866.328,88.187z"/>
			<g>
				<path fill="#FFFFFF" d="M682.645,170.312c-9.361,0-16.992-2.459-22.677-7.311c-5.691-4.862-9.013-11.699-9.861-20.318
					l-0.105-1.053h6.841l0.148,0.784c1.299,6.943,4.116,12.265,8.381,15.807c4.253,3.546,10.011,5.336,17.117,5.336
					c7.117,0,12.875-1.655,17.107-4.93c4.226-3.264,6.278-7.469,6.278-12.854c0-3.756-1.211-6.833-3.595-9.146
					c-2.458-2.384-6.506-4.358-12.031-5.866c-0.979-0.256-2.433-0.646-4.354-1.17c-13.675-3.482-22.34-6.771-26.479-10.052
					c-2.229-1.738-3.986-3.936-5.208-6.524c-1.226-2.576-1.847-5.451-1.847-8.542c0-6.716,2.77-12.259,8.229-16.476
					c5.383-4.16,12.491-6.27,21.125-6.27c8.078,0,14.776,2.21,19.91,6.57c5.148,4.371,8.144,10.436,8.894,18.024l0.105,1.058h-6.805
					l-0.115-0.829c-0.841-5.994-3.208-10.616-7.044-13.742c-3.848-3.132-9.11-4.723-15.646-4.723
					c-6.344,0-11.579,1.519-15.564,4.513c-3.953,2.975-5.875,6.653-5.875,11.249c0,7.614,8.262,13.633,24.561,17.892l1.655,0.476
					c10.391,2.663,17.604,5.744,21.411,9.147c3.901,3.496,5.884,8.399,5.884,14.568c0,7.018-2.924,12.911-8.688,17.514
					C698.697,168.003,691.379,170.312,682.645,170.312z"/>
				<path fill="#FFFFFF" d="M737.335,170.407c-4.434,0-7.687-1.29-9.667-3.833c-1.944-2.508-2.888-6.483-2.888-12.147V87.999
					h-10.421v-6.357h10.421V50.226h6.982v31.416h15.016v6.357h-15.016v61.145c0,6.243,0.498,10.342,1.48,12.181
					c0.895,1.677,2.485,2.49,4.87,2.49c1.04,0,2.142-0.086,3.272-0.263c1.157-0.173,2.555-0.493,4.163-0.948l1.229-0.346v6.619
					l-0.737,0.18c-1.698,0.414-3.292,0.749-4.74,0.989C739.885,170.286,738.546,170.407,737.335,170.407z"/>
				<path fill="#FFFFFF" d="M787.725,163.814c7.96,0,13.96-2.05,17.361-5.931c3.48-3.979,5.248-10.609,5.248-19.713V81.646h6.905
					v58.164c0,10.168-2.458,17.889-7.309,22.947c-4.855,5.081-12.273,7.653-22.045,7.653c-9.773,0-17.189-2.572-22.049-7.653
					c-4.848-5.062-7.304-12.783-7.304-22.947V81.646h6.9v56.524c0,9.104,1.769,15.734,5.248,19.713
					C774.128,161.817,779.861,163.814,787.725,163.814z"/>
			</g>
		</g>
		<path fill="#999999" d="M1134.354,163.814c7.957,0,13.959-2.05,17.359-5.931c3.479-3.979,5.246-10.609,5.246-19.713V81.646h6.906
			v58.164c0,10.168-2.457,17.889-7.311,22.947c-4.854,5.081-12.271,7.653-22.046,7.653c-9.77,0-17.188-2.572-22.045-7.653
			c-4.85-5.062-7.307-12.783-7.307-22.947V81.646h6.902v56.524c0,9.104,1.766,15.734,5.248,19.713
			C1120.752,161.817,1126.49,163.814,1134.354,163.814z"/>
		<polygon fill="#C93B27" points="915.371,74.395 915.371,50.318 939.959,50.318 915.396,74.395 		"/>
		<path fill="#FFFFFF" d="M922.275,170.437h-6.904V81.646h6.904V170.437z"/>
		<path fill="#999999" d="M1093.614,170.437h-7.063v-56.454c0-9.153-1.753-15.796-5.209-19.74
			c-3.418-3.912-9.113-5.896-16.931-5.896c-4.535,0-8.563,0.672-11.979,1.997c-3.391,1.311-6.287,3.302-8.615,5.925
			c-2.323,2.622-3.993,5.726-4.965,9.227c-0.983,3.561-1.483,9.427-1.483,17.437v47.508h-7.058V50.227h7.058v44.284
			c2.467-3.654,5.669-6.563,9.552-8.672c4.884-2.659,10.717-4.009,17.333-4.009c9.771,0,17.188,2.559,22.048,7.605
			c4.852,5.045,7.311,12.754,7.311,22.916v58.086H1093.614z"/>
	</g>
	
		<line opacity="0.3" fill="none" stroke="#FFFFFF" stroke-miterlimit="10" enable-background="new    " x1="650.467" y1="81.219" x2="1900" y2="81.219"/>
	
		<line opacity="0.3" fill="none" stroke="#FFFFFF" stroke-miterlimit="10" enable-background="new    " x1="650.467" y1="171.017" x2="1900" y2="171.017"/>
	
		<line opacity="0.3" fill="none" stroke="#FFFFFF" stroke-miterlimit="10" enable-background="new    " x1="0" y1="50.043" x2="1900" y2="50.043"/>
	
		<line opacity="0.3" fill="none" stroke="#FFFFFF" stroke-miterlimit="10" enable-background="new    " x1="650.47" y1="0" x2="650.47" y2="313.332"/>
	
		<line opacity="0.3" fill="none" stroke="#FFFFFF" stroke-miterlimit="10" enable-background="new    " x1="1019.569" y1="0" x2="1019.569" y2="313.332"/>
	
		<line opacity="0.3" fill="none" stroke="#FFFFFF" stroke-miterlimit="10" enable-background="new    " x1="932.921" y1="0" x2="932.921" y2="512.085"/>
	
		<line opacity="0.3" fill="none" stroke="#FFFFFF" stroke-miterlimit="10" enable-background="new    " x1="1251.47" y1="0" x2="1251.47" y2="313.332"/>
</g>
</svg>
