<?xml version="1.0" encoding="utf-8"?>
<!-- Generator: Adobe Illustrator 16.0.3, SVG Export Plug-In . SVG Version: 6.00 Build 0)  -->
<!DOCTYPE svg PUBLIC "-//W3C//DTD SVG 1.1//EN" "http://www.w3.org/Graphics/SVG/1.1/DTD/svg11.dtd">
<svg version="1.1" id="Layer_1" xmlns="http://www.w3.org/2000/svg" xmlns:xlink="http://www.w3.org/1999/xlink" x="0px" y="0px"
	 width="138.523px" height="63.667px" viewBox="0 15.333 138.523 63.667" enable-background="new 0 15.333 138.523 63.667"
	 xml:space="preserve">
<g>
	<path fill="#333333" d="M51.075,62.476h-3.687V40.491c0.001-0.068,0.081-6.229,0.446-9.494c0.954-8.524,7.108-12.266,7.369-12.421
		c2.223-1.486,5.014-2.248,8.272-2.248h0.5v3.544l-0.479,0.02c-4.473,0.182-7.688,1.748-9.553,4.654
		c-1.905,2.971-2.871,8.167-2.871,15.442L51.075,62.476L51.075,62.476z"/>
</g>
<path fill="#333333" d="M18.77,78.971c-4.976,0-9.022-1.207-12.031-3.589c-3.041-2.407-4.611-5.653-4.666-9.646L2.063,65.23h3.508
	l0.021,0.476C5.749,68.831,7,71.211,9.417,72.979c2.426,1.771,5.791,2.672,10.002,2.672c3.516,0,6.515-0.605,8.916-1.799
	c2.381-1.188,4.261-2.977,5.589-5.315c0.646-1.162,1.12-3.05,1.407-4.617c0.292-1.588,0.438-4.353,0.438-8.214v-2.262
	c-1.421,2.508-3.323,4.535-5.682,6.041c-2.933,1.875-6.413,2.826-10.344,2.826c-5.963,0-10.748-2.115-14.224-6.285
	c-3.451-4.146-5.202-9.401-5.202-16.52c0-7.145,1.758-12.848,5.226-16.951c3.487-4.128,8.32-6.221,14.364-6.221
	c4.015,0,7.55,0.972,10.508,2.889c2.999,1.943,5.449,5.941,5.748,6.651c0.056,0.132,0.146,0.309,0.261,0.533
	c0.495,0.967,1.415,2.767,2.078,5.675c0.743,3.261,0.798,5.89,0.827,7.302l0.004,0.178c0.029,1.292,0.001,18.437,0,19.167
	c0,3.305-0.217,5.871-0.646,7.627c-0.432,1.771-1.159,3.424-2.167,4.903c-1.731,2.539-4.134,4.482-7.137,5.774
	C26.409,78.32,22.835,78.971,18.77,78.971z M19.91,19.657c-4.868,0-8.771,1.766-11.603,5.249c-2.854,3.515-4.304,8.428-4.304,14.603
	c0,6.146,1.448,10.597,4.304,14.111c2.83,3.483,6.732,5.249,11.603,5.249c4.863,0,8.76-1.766,11.576-5.248
	c2.844-3.514,4.283-7.965,4.283-14.112c0-6.176-1.439-11.089-4.283-14.604C28.669,21.423,24.776,19.657,19.91,19.657z"/>
<g>
	<g>
		<path fill="#333333" d="M119.059,62.476c-5.966,0-10.748-2.114-14.225-6.285c-3.453-4.144-5.204-9.853-5.204-16.97
			c0-4.435,0.68-8.337,2.015-11.599l0.128-0.312l4.045,0.02l-0.335,0.71c-1.438,3.04-2.164,6.802-2.164,11.182
			c0,6.15,1.448,11.049,4.304,14.566c2.83,3.482,6.732,5.25,11.603,5.25"/>
		<path fill="#333333" d="M118.816,59.037c4.871,0,8.773-1.768,11.603-5.25c2.856-3.517,4.303-8.416,4.303-14.566
			c0-4.38-0.725-8.143-2.164-11.182l-0.334-0.71l4.045-0.02l0.127,0.312c1.336,3.262,2.018,7.165,2.018,11.599
			c0,7.118-1.754,12.827-5.207,16.97c-3.477,4.171-8.258,6.285-14.225,6.285"/>
	</g>
	<path fill="#C83927" d="M135.031,25.041l-4.151-0.034l-0.148-0.184c-2.813-3.482-6.711-5.248-11.573-5.248
		c-4.868,0-8.771,1.766-11.603,5.249l-0.147,0.185l-4.443-0.007l0.515-0.775c0.404-0.608,0.849-1.197,1.314-1.751
		c3.488-4.128,8.321-6.221,14.364-6.221c4.014,0,7.55,0.972,10.508,2.889c2.275,1.477,4.146,4.067,4.843,5.112L135.031,25.041z"/>
</g>
<g>
	<path fill="#333333" d="M84.67,16.333v30.955h10.167l-0.01,3.527l-10.157,0.01v11.65h-3.576v-11.65l-21.859-0.01l0.01-3.527
		c2.038-2.317,4.103-4.79,6.194-7.417c2.091-2.628,4.091-5.298,6.001-8.013c1.909-2.713,3.668-5.394,5.277-8.044
		c1.609-2.649,2.96-5.143,4.054-7.481H84.67z M81.094,47.288V22.93c-1.588,2.746-3.165,5.304-4.73,7.674
		c-1.566,2.371-3.084,4.569-4.553,6.596c-1.47,2.027-2.875,3.878-4.215,5.551c-1.341,1.674-2.569,3.186-3.684,4.537H81.094z"/>
</g>
</svg>
