<?xml version="1.0" encoding="utf-8"?>
<!-- Generator: Adobe Illustrator 16.0.3, SVG Export Plug-In . SVG Version: 6.00 Build 0)  -->
<!DOCTYPE svg PUBLIC "-//W3C//DTD SVG 1.1//EN" "http://www.w3.org/Graphics/SVG/1.1/DTD/svg11.dtd">
<svg version="1.1" id="Layer_1" xmlns="http://www.w3.org/2000/svg" xmlns:xlink="http://www.w3.org/1999/xlink" x="0px" y="0px"
	 width="1900px" height="507.584px" viewBox="0 0 1900 507.584" enable-background="new 0 0 1900 507.584" xml:space="preserve">
<g id="Layer_1_1_">
	
		<line opacity="0.3" fill="none" stroke="#FFFFFF" stroke-miterlimit="10" enable-background="new    " x1="683.967" y1="81.219" x2="1900" y2="81.219"/>
	
		<line opacity="0.3" fill="none" stroke="#FFFFFF" stroke-miterlimit="10" enable-background="new    " x1="683.967" y1="171.017" x2="1900" y2="171.017"/>
	
		<line opacity="0.3" fill="none" stroke="#FFFFFF" stroke-miterlimit="10" enable-background="new    " x1="0" y1="50.043" x2="1900" y2="50.043"/>
	<g>
		
			<line opacity="0.3" fill="none" stroke="#FFFFFF" stroke-miterlimit="10" enable-background="new    " x1="683.35" y1="0" x2="683.35" y2="283.332"/>
		
			<line opacity="0.3" fill="none" stroke="#FFFFFF" stroke-miterlimit="10" enable-background="new    " x1="985.547" y1="0" x2="985.547" y2="283.332"/>
		
			<line opacity="0.3" fill="none" stroke="#FFFFFF" stroke-miterlimit="10" enable-background="new    " x1="940.002" y1="0" x2="940.002" y2="512.085"/>
		
			<line opacity="0.3" fill="none" stroke="#FFFFFF" stroke-miterlimit="10" enable-background="new    " x1="1216.65" y1="0" x2="1216.65" y2="283.332"/>
		<g>
			<path fill="#999999" d="M1178.359,170.482c-7.973,0-15.704-1.884-20.682-5.044c-5.281-3.336-9.615-8.456-12.885-15.213
				c-0.182-0.424-4.014-9.629-3.646-28.991l1.175-70.733h7.051l-1.074,48.627c2.727-4.976,6.27-8.906,10.561-11.715
				c5.385-3.527,11.946-5.316,19.5-5.316c11.475,0,20.68,4.004,27.36,11.904c6.633,7.852,9.997,18.717,9.997,32.29
				c0,13.578-3.352,24.442-9.959,32.285C1199.105,166.474,1189.889,170.482,1178.359,170.482z M1178.359,88.441
				c-9.275,0-16.689,3.364-22.027,10.003c-5.396,6.696-8.13,16.064-8.13,27.844c0,11.785,1.111,21.016,6.551,27.769
				c5.113,6.355,13.719,9.997,23.606,9.997c9.326,0,16.793-3.366,22.197-10c5.441-6.706,8.201-16.05,8.201-27.765
				c0-11.769-2.76-21.135-8.203-27.842C1195.153,91.809,1187.688,88.441,1178.359,88.441z"/>
			<path fill="#999999" d="M1100.272,163.806c7.938,0,13.927-2.045,17.32-5.918c3.476-3.968,5.235-10.588,5.235-19.671V81.854h6.894
				v57.999c0,10.146-2.454,17.85-7.295,22.898c-4.845,5.067-12.245,7.633-21.998,7.633c-9.75,0-17.153-2.566-21.998-7.633
				c-4.838-5.051-7.292-12.755-7.292-22.898V81.854h6.891v56.363c0,9.083,1.761,15.701,5.234,19.667
				C1086.698,161.813,1092.427,163.806,1100.272,163.806z"/>
			<g>
				<path fill="#FFFFFF" d="M691.126,170.455h-7.084v-42.239c0.002-0.131,0.155-11.97,0.856-18.242
					c1.833-16.377,13.658-23.568,14.159-23.865c4.271-2.855,9.634-4.319,15.896-4.319h0.961v6.81l-0.921,0.039
					c-8.594,0.349-14.769,3.358-18.354,8.942c-3.661,5.708-5.517,15.691-5.517,29.669v43.207h0.004V170.455z"/>
			</g>
			<path fill="#FFFFFF" d="M781.404,202.233c-9.563,0-17.342-2.319-23.122-6.896c-5.843-4.625-8.86-10.862-8.965-18.532
				l-0.015-0.972h6.737l0.044,0.914c0.3,6.004,2.702,10.577,7.349,13.973c4.662,3.406,11.127,5.134,19.223,5.134
				c6.755,0,12.518-1.164,17.13-3.456c4.576-2.28,8.188-5.715,10.739-10.213c1.241-2.233,2.151-5.86,2.703-8.872
				c0.561-3.051,0.843-8.363,0.843-15.782v-4.345c-2.729,4.819-6.388,8.713-10.915,11.607c-5.637,3.602-12.322,5.43-19.875,5.43
				c-11.462,0-20.656-4.065-27.331-12.077c-6.634-7.961-9.998-18.063-9.998-31.736c0-13.729,3.377-24.685,10.039-32.569
				c6.702-7.931,15.987-11.953,27.604-11.953c7.715,0,14.506,1.868,20.189,5.551c5.763,3.733,10.47,11.415,11.045,12.779
				c0.106,0.253,0.28,0.594,0.501,1.024c0.95,1.857,2.719,5.315,3.993,10.903c1.426,6.266,1.532,11.317,1.588,14.03l0.008,0.342
				c0.056,2.478,0.002,35.424,0,36.822c0,6.35-0.417,11.281-1.241,14.655c-0.829,3.405-2.23,6.579-4.164,9.423
				c-3.329,4.88-7.941,8.615-13.712,11.096C796.083,200.984,789.218,202.233,781.404,202.233z M783.597,88.271
				c-9.358,0-16.856,3.392-22.295,10.085c-5.485,6.753-8.269,16.193-8.269,28.057c0,11.808,2.781,20.36,8.269,27.113
				c5.438,6.693,12.935,10.086,22.295,10.086c9.348,0,16.831-3.393,22.242-10.084c5.464-6.751,8.231-15.302,8.231-27.115
				c0-11.866-2.768-21.306-8.231-28.06C800.428,91.663,792.946,88.271,783.597,88.271z"/>
			<polygon fill="#C93B27" points="727.494,74.618 727.494,50.593 752.029,50.593 727.521,74.618 			"/>
			<path fill="#FFFFFF" d="M734.385,170.455h-6.891V81.854h6.891V170.455z"/>
			<path fill="#FFFFFF" d="M919.798,170.482c-4.426,0-7.671-1.288-9.646-3.822c-1.942-2.505-2.883-6.469-2.883-12.123V88.249
				h-10.398v-6.342h10.398V50.502h6.969v31.407h14.98v6.342h-14.98v61.018c0,6.229,0.499,10.316,1.479,12.151
				c0.89,1.673,2.479,2.488,4.855,2.488c1.039,0,2.138-0.09,3.268-0.265c1.152-0.174,2.548-0.493,4.154-0.948l1.225-0.345v6.605
				l-0.731,0.18c-1.697,0.415-3.287,0.747-4.733,0.987C922.34,170.362,921.006,170.482,919.798,170.482z"/>
			<path fill="#FFFFFF" d="M895.709,170.455h-7.048v-56.516c0-9.134-1.749-15.763-5.195-19.698
				c-3.412-3.905-9.096-5.883-16.896-5.883c-4.525,0-8.545,0.67-11.952,1.993c-3.383,1.306-6.275,3.295-8.598,5.912
				c-2.319,2.617-3.984,5.714-4.952,9.207c-0.982,3.553-1.481,9.407-1.481,17.4v47.589h-7.04V50.501h7.04v44.005
				c2.46-3.646,5.655-6.549,9.531-8.653c4.873-2.653,10.692-4,17.296-4c9.748,0,17.15,2.554,22,7.59
				c4.839,5.034,7.294,12.727,7.294,22.866L895.709,170.455L895.709,170.455L895.709,170.455z"/>
			<path fill="#999999" d="M1059.592,170.455h-7.048v-56.516c0-9.134-1.749-15.763-5.195-19.698
				c-3.413-3.905-9.095-5.883-16.896-5.883c-4.525,0-8.545,0.67-11.953,1.993c-3.381,1.306-6.273,3.295-8.596,5.912
				c-2.319,2.617-3.986,5.714-4.954,9.207c-0.981,3.553-1.48,9.407-1.48,17.4v47.589h-7.04V50.501h7.04v44.005
				c2.46-3.646,5.657-6.549,9.531-8.653c4.873-2.653,10.692-4,17.296-4c9.75,0,17.15,2.554,22.001,7.59
				c4.841,5.034,7.293,12.727,7.293,22.866L1059.592,170.455L1059.592,170.455L1059.592,170.455z"/>
			<g>
				<path fill="#C83927" d="M963.645,121.456l-5.864,5.47l-13.372-13.289c-2.289-3.285-3.62-7.216-3.62-11.431
					c0-11.497,9.893-20.851,22.052-20.851s22.051,9.353,22.051,20.851c0,7.197-3.88,13.557-9.765,17.303l-5.248-5.493
					c4.354-2.331,7.301-6.752,7.301-11.809c0-7.478-6.43-13.559-14.337-13.559c-7.905,0-14.336,6.081-14.336,13.559
					c0,2.723,0.85,5.257,2.32,7.385L963.645,121.456z"/>
				<ellipse fill="#C83927" cx="962.839" cy="101.633" rx="7.59" ry="7.177"/>
			</g>
			<g>
				<path fill="#FFFFFF" d="M962.034,130.57l5.864-5.468l13.371,13.289c2.284,3.284,3.619,7.212,3.619,11.433
					c0,11.491-9.89,20.848-22.051,20.848c-12.156,0-22.052-9.355-22.052-20.848c0-7.198,3.884-13.563,9.767-17.308l5.249,5.494
					c-4.356,2.331-7.303,6.751-7.303,11.81c0,7.477,6.433,13.559,14.338,13.559s14.337-6.082,14.337-13.559
					c0-2.725-0.851-5.259-2.319-7.389L962.034,130.57z"/>
				<ellipse fill="#FFFFFF" cx="962.839" cy="150.394" rx="7.59" ry="7.179"/>
			</g>
		</g>
	</g>
</g>
</svg>
